<svg width="26" height="26" viewBox="0 0 26 26" fill="none" xmlns="http://www.w3.org/2000/svg">
<g clip-path="url(#clip0)">
<path d="M10.019 22.468V25.008L9.405 24.508C7.74025 23.1192 6.18776 21.6012 4.762 19.968C1.6 16.345 0 13.089 0 10.3V10.023C0.0263733 7.38327 1.09351 4.86061 2.96947 3.00329C4.84544 1.14597 7.37863 0.104095 10.0185 0.104095C12.6584 0.104095 15.1916 1.14597 17.0675 3.00329C18.9435 4.86061 20.0106 7.38327 20.037 10.023V10.3C20.037 10.535 20.025 10.773 20.002 11.014L18.043 9.222C17.8372 7.16327 16.8479 5.26241 15.2799 3.91262C13.7118 2.56283 11.6849 1.86739 9.6185 1.97015C7.55206 2.0729 5.60417 2.966 4.17776 4.46469C2.75136 5.96339 1.95556 7.95301 1.955 10.022V10.3C1.955 15.017 8.038 20.732 10.019 22.468ZM16.03 21.068H18.962V18.131H16.03V21.068ZM10.019 5.868C10.8406 5.868 11.6437 6.11163 12.3268 6.56808C13.01 7.02452 13.5424 7.67329 13.8568 8.43233C14.1712 9.19138 14.2535 10.0266 14.0932 10.8324C13.9329 11.6382 13.5373 12.3784 12.9563 12.9593C12.3754 13.5403 11.6352 13.9359 10.8294 14.0962C10.0236 14.2565 9.18838 14.1742 8.42933 13.8598C7.67029 13.5454 7.02152 13.013 6.56508 12.3298C6.10863 11.6467 5.865 10.8436 5.865 10.022C5.86553 8.92018 6.30326 7.86359 7.08208 7.0842C7.86091 6.30482 8.91718 5.86633 10.019 5.865V5.868ZM10.019 7.823C9.58388 7.823 9.15853 7.95203 8.79675 8.19377C8.43496 8.43551 8.15298 8.7791 7.98646 9.1811C7.81995 9.5831 7.77638 10.0254 7.86127 10.4522C7.94616 10.879 8.15569 11.271 8.46337 11.5786C8.77104 11.8863 9.16304 12.0958 9.5898 12.1807C10.0166 12.2656 10.4589 12.2221 10.8609 12.0555C11.2629 11.889 11.6065 11.607 11.8482 11.2453C12.09 10.8835 12.219 10.4581 12.219 10.023C12.2195 9.73376 12.163 9.44725 12.0527 9.17987C11.9424 8.91249 11.7804 8.66949 11.5761 8.46478C11.3717 8.26007 11.129 8.09766 10.8618 7.98685C10.5947 7.87604 10.3082 7.819 10.019 7.819V7.823ZM23.766 19.735L23.216 19.235V22.373C23.2152 23.0756 22.9358 23.7492 22.439 24.246C21.9422 24.7428 21.2686 25.0222 20.566 25.023H14.377C13.6744 25.0222 13.0008 24.7428 12.504 24.246C12.0072 23.7492 11.7278 23.0756 11.727 22.373V19.234L11.177 19.734L9.86 18.291L17.472 11.347L25.084 18.291L23.766 19.735ZM21.266 17.45L17.476 13.992L13.686 17.45V22.372C13.686 22.5577 13.7598 22.7357 13.891 22.867C14.0223 22.9983 14.2003 23.072 14.386 23.072H20.575C20.7607 23.072 20.9387 22.9983 21.07 22.867C21.2013 22.7357 21.275 22.5577 21.275 22.372L21.266 17.45Z" fill="#EE901F"/>
</g>
<defs>
<clipPath id="clip0">
<rect width="25.083" height="25.022" fill="white"/>
</clipPath>
</defs>
</svg>
