<svg width="26" height="26" viewBox="0 0 26 26" fill="none" xmlns="http://www.w3.org/2000/svg">
<g clip-path="url(#clip0)">
<path d="M5.863 9.91799H3.932C4.07728 7.9601 4.88807 6.11086 6.22968 4.6775C7.57129 3.24415 9.36294 2.31298 11.307 2.0387C13.251 1.76442 15.2303 2.16355 16.9161 3.16977C18.6019 4.17599 19.8927 5.72872 20.574 7.56999C20.6185 7.69034 20.6863 7.80075 20.7735 7.89491C20.8607 7.98907 20.9656 8.06513 21.0821 8.11876C21.1987 8.17239 21.3247 8.20252 21.453 8.20745C21.5812 8.21238 21.7091 8.19201 21.8295 8.14749C21.9499 8.10297 22.0603 8.03518 22.1544 7.94799C22.2486 7.8608 22.3246 7.75593 22.3783 7.63934C22.4319 7.52276 22.462 7.39675 22.467 7.26852C22.4719 7.14029 22.4515 7.01234 22.407 6.89199C21.5507 4.57879 19.9112 2.63858 17.7733 1.40834C15.6354 0.178092 13.1341 -0.264475 10.7039 0.157499C8.27363 0.579474 6.06794 1.83933 4.4699 3.71827C2.87185 5.5972 1.98239 7.97652 1.956 10.443C1.36188 10.7858 0.86839 11.2788 0.525063 11.8726C0.181736 12.4664 0.000655652 13.1401 0 13.826L0 17.148C0.00132303 18.184 0.413482 19.1773 1.14609 19.9099C1.87869 20.6425 2.87194 21.0547 3.908 21.056H5.863C5.9913 21.056 6.11835 21.0307 6.23688 20.9816C6.35542 20.9325 6.46312 20.8606 6.55384 20.7698C6.64457 20.6791 6.71653 20.5714 6.76563 20.4529C6.81473 20.3343 6.84 20.2073 6.84 20.079V10.895C6.84 10.7667 6.81473 10.6396 6.76563 10.5211C6.71653 10.4026 6.64457 10.2949 6.55384 10.2041C6.46312 10.1134 6.35542 10.0415 6.23688 9.99236C6.11835 9.94326 5.9913 9.91799 5.863 9.91799ZM4.885 19.1H3.908C3.38993 19.0995 2.89323 18.8934 2.5269 18.5271C2.16057 18.1608 1.95453 17.6641 1.954 17.146V13.826C1.95453 13.3079 2.16057 12.8112 2.5269 12.4449C2.89323 12.0786 3.38993 11.8725 3.908 11.872H4.885V19.1Z" fill="#EE901F"/>
<path d="M21.106 9.918H19.153C18.8939 9.918 18.6454 10.0209 18.4621 10.2042C18.2789 10.3874 18.176 10.6359 18.176 10.895V21.106C18.1757 21.365 18.0727 21.6134 17.8895 21.7966C17.7064 21.9797 17.458 22.0827 17.199 22.083H14.219V22.114C14.0093 21.735 13.6795 21.4364 13.2816 21.2651C12.8837 21.0939 12.4402 21.0597 12.0207 21.168C11.6013 21.2763 11.2297 21.521 10.9645 21.8634C10.6992 22.2059 10.5552 22.6268 10.5552 23.06C10.5552 23.4932 10.6992 23.9141 10.9645 24.2566C11.2297 24.599 11.6013 24.8436 12.0207 24.952C12.4402 25.0603 12.8837 25.0261 13.2816 24.8549C13.6795 24.6836 14.0093 24.385 14.219 24.006V24.037H17.199C17.976 24.0359 18.7209 23.7268 19.2703 23.1774C19.8198 22.6279 20.1289 21.883 20.13 21.106V21.057H21.107C22.143 21.0557 23.1363 20.6435 23.8689 19.9109C24.6015 19.1783 25.0137 18.1851 25.015 17.149V13.827C25.0139 12.7906 24.6017 11.7969 23.8689 11.0641C23.136 10.3312 22.1424 9.91906 21.106 9.918V9.918ZM23.06 17.149C23.0595 17.6671 22.8534 18.1638 22.4871 18.5301C22.1207 18.8964 21.624 19.1025 21.106 19.103H20.129V11.872H21.106C21.624 11.8725 22.1207 12.0786 22.4871 12.4449C22.8534 12.8112 23.0595 13.3079 23.06 13.826V17.149Z" fill="#EE901F"/>
</g>
<defs>
<clipPath id="clip0">
<rect width="25.014" height="25.014" fill="white"/>
</clipPath>
</defs>
</svg>
