<svg width="40" height="40" viewBox="0 0 40 40" fill="none" xmlns="http://www.w3.org/2000/svg">
<path d="M0 40L2.79834 30.0612C0.998843 27.0041 0.0513958 23.5259 0.0513958 19.9527C0.0513958 8.95073 9.00213 0 20.0041 0C31.006 0 39.9566 8.95073 39.9566 19.9527C39.9566 30.9546 31.006 39.9054 20.0041 39.9054C16.5759 39.9054 13.2191 39.0279 10.2496 37.3616L0 40ZM10.7735 33.7317L11.3843 34.1046C13.9734 35.6852 16.9541 36.5207 20.0041 36.5207C29.1397 36.5207 36.572 29.0883 36.572 19.9527C36.572 10.817 29.1397 3.38464 20.0041 3.38464C10.8684 3.38464 3.43603 10.817 3.43603 19.9527C3.43603 23.1359 4.34073 26.227 6.0521 28.892L6.4634 29.5325L4.85194 35.256L10.7735 33.7317Z" fill="white"/>
<path d="M14.3991 10.6661L13.1044 10.5955C12.6977 10.5734 12.2989 10.7092 11.9915 10.9763C11.3638 11.5213 10.3602 12.5751 10.052 13.9482C9.59228 15.9957 10.3027 18.5028 12.1413 21.0099C13.9799 23.5171 17.4063 27.5285 23.4652 29.2418C25.4176 29.7938 26.9535 29.4216 28.1385 28.6636C29.077 28.0633 29.724 27.0997 29.9571 26.0103L30.1638 25.0448C30.2295 24.7379 30.0737 24.4265 29.7887 24.2952L25.4131 22.2783C25.129 22.1474 24.7922 22.2302 24.6011 22.4777L22.8834 24.7046C22.7536 24.8728 22.5315 24.9395 22.3309 24.8691C21.1546 24.4556 17.2141 22.8053 15.0519 18.6405C14.9582 18.4598 14.9815 18.2406 15.1145 18.0865L16.7562 16.1873C16.9239 15.9934 16.9663 15.7208 16.8655 15.4851L14.9794 11.0724C14.879 10.8375 14.6539 10.68 14.3991 10.6661Z" fill="white"/>
</svg>
