<svg width="60" height="60" viewBox="0 0 60 60" fill="none" xmlns="http://www.w3.org/2000/svg">
<g clip-path="url(#clip0)">
<path d="M59.7556 21.989L49.7132 8.94364C49.3415 8.46116 48.6635 8.34214 48.1494 8.66898L41.6657 12.7925H33.2094C33.1 12.7925 32.991 12.8159 32.8858 12.8465L26.3292 14.7339L19.5259 12.8731L12.9154 8.66898C12.41 8.34763 11.7444 8.45658 11.3686 8.92258L0.260932 22.6811C-0.138238 23.1755 -0.0723199 23.8974 0.409248 24.3117L6.23109 29.3219L11.4542 36.3605C9.92661 37.9878 9.95637 40.5545 11.5457 42.1443C12.2502 42.8484 13.1461 43.2462 14.0675 43.3387C14.0355 43.5474 14.019 43.7593 14.019 43.9745C14.019 45.085 14.4516 46.1292 15.2367 46.9142C16.0222 47.6998 17.0664 48.1324 18.1769 48.1324C18.192 48.1324 18.2066 48.1314 18.2213 48.131C18.2208 48.1594 18.2195 48.1873 18.2195 48.2157C18.2195 49.3262 18.6521 50.3704 19.4371 51.1559C20.2226 51.941 21.2668 52.3735 22.3773 52.3735C22.5966 52.3735 22.8136 52.3557 23.0264 52.3227C23.1166 53.2474 23.5153 54.1474 24.2221 54.8542C25.0324 55.6649 26.0971 56.07 27.1619 56.07C28.2266 56.07 29.2914 55.6649 30.1021 54.8542L30.7379 54.2183L31.0048 54.4335C31.8086 55.2121 32.8523 55.6012 33.896 55.6012C34.9608 55.6012 36.0256 55.1961 36.8358 54.3854C37.663 53.5582 38.0681 52.4665 38.0512 51.3802C39.137 51.3967 40.2292 50.992 41.0564 50.1653C41.8826 49.3386 42.2878 48.2477 42.2717 47.1619C43.4029 47.1798 44.4759 46.7453 45.2765 45.9447C46.1037 45.1175 46.5088 44.0258 46.4919 42.9395C47.5786 42.956 48.6699 42.5513 49.4971 41.7241C50.9088 40.3124 51.0906 38.1302 50.0437 36.5193L53.8573 28.5323L59.5908 23.5985C60.0646 23.1906 60.1369 22.4838 59.7556 21.989V21.989ZM12.5391 11.2183L17.2925 14.2409L6.95207 26.8386L2.80839 23.2721L12.5391 11.2183ZM13.2097 37.9279L14.6443 36.4933C14.6878 36.4498 14.7336 36.4086 14.7803 36.3701C15.0609 36.1412 15.4006 36.0048 15.7604 35.9723C15.7704 35.9714 15.781 35.9714 15.791 35.9709C15.8423 35.9668 15.8936 35.9641 15.9453 35.9645C16.4369 35.9714 16.8938 36.1724 17.2325 36.5299C17.8972 37.2325 17.8615 38.3806 17.1529 39.0892L15.7617 40.4804C15.0581 41.184 13.9133 41.184 13.2097 40.4804C12.5061 39.7763 12.5061 38.6315 13.2097 37.9279ZM16.9006 45.2503C16.5596 44.9097 16.3719 44.4565 16.3719 43.9745C16.3719 43.4925 16.5596 43.0393 16.9006 42.6982L19.6825 39.9164C20.2153 39.3836 21.053 39.2375 21.7342 39.5621C22.4364 39.8967 22.8314 40.6589 22.7284 41.4257C22.6735 41.8349 22.4831 42.2203 22.191 42.5128L19.4531 45.2503C19.1121 45.5913 18.6589 45.779 18.1769 45.779C17.6949 45.779 17.2417 45.5913 16.9006 45.2503ZM21.1011 49.4915C20.7601 49.1509 20.5724 48.6977 20.5724 48.2157C20.5724 47.7336 20.7601 47.2805 21.1011 46.9394L23.8825 44.1576C24.4524 43.5881 25.3665 43.4655 26.0642 43.8715C26.7014 44.2423 27.0351 44.9701 26.9257 45.6952C26.8657 46.0939 26.6762 46.4688 26.391 46.754L23.6536 49.4915C23.3125 49.8325 22.8594 50.0202 22.3773 50.0202C21.8953 50.0202 21.4421 49.8325 21.1011 49.4915ZM25.8856 53.1902C25.1821 52.4866 25.1821 51.3417 25.8856 50.6382L27.3203 49.2035C27.3638 49.16 27.4091 49.1193 27.4558 49.0808C27.4571 49.0799 27.4581 49.079 27.459 49.0781C27.6924 48.8886 27.9666 48.7618 28.2591 48.7064C28.266 48.7055 28.2729 48.7046 28.2797 48.7036C28.3301 48.6945 28.3814 48.6872 28.4326 48.6826C28.4532 48.6808 28.4738 48.6808 28.4949 48.6794C28.537 48.6771 28.5787 48.6744 28.6212 48.6748C29.1124 48.6817 29.5697 48.8822 29.9085 49.2401C29.9501 49.2841 29.989 49.3299 30.0247 49.377C30.5658 50.0843 30.493 51.1348 29.8215 51.8068L28.4377 53.1907C27.7341 53.8942 26.5892 53.8938 25.8856 53.1902V53.1902ZM47.8331 40.0601C47.1295 40.7642 45.9847 40.7637 45.2811 40.0601C45.2555 40.0345 45.2284 40.0107 45.201 39.9883L37.636 32.3436C37.1787 31.8817 36.4339 31.8781 35.972 32.3354C35.5101 32.7922 35.5065 33.537 35.9633 33.9989L43.6102 41.7255C43.6112 41.7264 43.6121 41.7273 43.613 41.7282C44.3166 42.4318 44.3166 43.5771 43.613 44.2807C43.272 44.6218 42.8188 44.8094 42.3367 44.8094C41.8543 44.8094 41.4011 44.6218 41.0605 44.2807L35.945 39.1121C35.4881 38.6502 34.7434 38.6466 34.2815 39.1034C33.8196 39.5607 33.8159 40.3055 34.2728 40.7674L39.31 45.8568C39.3356 45.8889 39.3631 45.9195 39.3924 45.9488C40.096 46.6524 40.096 47.7977 39.3924 48.5013C38.6884 49.2049 37.543 49.2044 36.8395 48.5009L34.0476 45.6797C33.5903 45.2178 32.8455 45.2137 32.3836 45.671C31.9217 46.1278 31.918 46.8726 32.3749 47.3345L35.089 50.0765C35.1146 50.1085 35.1421 50.1397 35.1718 50.169C35.8754 50.8725 35.8754 52.0179 35.1718 52.7214C34.4682 53.4255 33.3234 53.425 32.6198 52.7214C32.5388 52.6404 32.4436 52.5782 32.3529 52.5086C32.276 52.45 32.2559 52.4092 32.2943 52.3159C32.3332 52.2211 32.3914 52.1355 32.4303 52.0403C32.4733 51.9341 32.5081 51.8247 32.542 51.7148C32.7223 51.1335 32.7754 50.5082 32.6944 49.9048C32.5388 48.7471 31.902 47.7025 30.9371 47.0415C30.4157 46.6849 29.8123 46.451 29.187 46.3631C29.4901 45.0264 29.1261 43.5771 28.1795 42.5769C27.4004 41.7539 26.348 41.292 25.2159 41.2764C25.1747 41.276 25.1335 41.276 25.0919 41.2764C25.117 40.1961 24.7243 39.1226 23.9795 38.3358C23.1999 37.5127 22.1475 37.0508 21.0159 37.0352C20.6795 37.0307 20.3398 37.0664 20.0121 37.1419C19.872 36.1673 19.3808 35.2655 18.6369 34.6205C17.8977 33.9806 16.9679 33.6254 15.9778 33.6116C14.9355 33.5965 13.9114 33.981 13.1374 34.68L8.58949 28.552L19.4696 15.2969L22.9372 16.2454L18.4085 24.2366C17.861 25.203 17.7228 26.3245 18.019 27.3947C18.3151 28.4654 19.01 29.3563 19.9764 29.9037C20.0368 29.9381 20.0977 29.9706 20.1595 30.0017C20.164 30.004 20.1686 30.0063 20.1737 30.0086C20.3362 30.0896 20.5032 30.1592 20.6726 30.2178C21.4613 30.491 22.3132 30.5208 23.1349 30.2938C24.2052 29.9976 25.096 29.3022 25.6435 28.3364L28.5864 23.143L33.8411 23.5156L47.8336 37.5077C48.5367 38.2117 48.5367 39.3566 47.8331 40.0601V40.0601ZM48.3206 34.6672L35.1943 21.5413C35.1695 21.5161 35.1434 21.4923 35.1164 21.4699C34.9274 21.3124 34.693 21.2172 34.4458 21.1998L28.0119 20.7434C27.567 20.7128 27.1248 20.9494 26.9051 21.3371L23.5964 27.1764C23.3588 27.5957 22.972 27.8974 22.5073 28.026C22.0432 28.1546 21.5561 28.0942 21.1363 27.8566C20.717 27.619 20.4154 27.2322 20.2867 26.7676C20.1581 26.303 20.2181 25.8159 20.4561 25.3966L24.8731 17.6013L26.6629 17.0863C26.6748 17.0827 26.6863 17.0781 26.6982 17.0744L33.3783 15.1454H41.4496L51.5259 27.9546L48.3206 34.6672ZM53.0672 26.108L43.7489 14.256L48.5047 11.2315L57.2118 22.5415L53.0672 26.108Z" fill="#EE901F"/>
</g>
<defs>
<clipPath id="clip0">
<rect width="60" height="60" fill="white"/>
</clipPath>
</defs>
</svg>
