<svg width="60" height="60" viewBox="0 0 60 60" fill="none" xmlns="http://www.w3.org/2000/svg">
<g clip-path="url(#clip0)">
<path d="M51.7342 21.2622C52.592 19.7585 52.2592 17.8551 50.9427 16.7354L46.9739 13.3653C46.7542 13.1786 46.6049 12.9158 46.5537 12.6261L45.6551 7.53388C45.3548 5.81727 43.8826 4.57215 42.1546 4.57215H36.974C36.693 4.57215 36.4183 4.47053 36.21 4.29383L32.2412 0.851899C32.238 0.849153 32.2343 0.846406 32.2311 0.843202C30.9045 -0.281067 28.9787 -0.281067 27.6526 0.843202C27.6489 0.846406 27.6457 0.849153 27.6425 0.851899L23.6824 4.28605C23.4654 4.47053 23.1912 4.57215 22.9106 4.57215H17.7287C16.0011 4.57215 14.5289 5.81773 14.2286 7.53205L13.3282 12.6288C13.2779 12.9172 13.1296 13.1786 12.9098 13.3649L8.9401 16.7359C7.62403 17.8551 7.29169 19.7585 8.14954 21.2618L10.7405 25.8042C10.8856 26.0587 10.9378 26.3576 10.8874 26.6465L9.98746 31.811C9.68946 33.5244 10.6489 35.2007 12.268 35.7962L17.1368 37.5907C17.2339 37.6264 17.3254 37.6745 17.4092 37.7335L8.38392 53.5602C7.86939 54.4625 8.70115 55.5415 9.70502 55.2727L14.9762 53.8605L16.3884 59.1312C16.658 60.1379 18.0176 60.3214 18.538 59.4086L27.8522 43.077L29.5317 42.4581C29.7958 42.3606 30.0874 42.361 30.3511 42.4576L32.1574 43.1232L42.1513 59.4402C42.6878 60.3155 44.0163 60.1269 44.2827 59.1312L45.6954 53.8605L50.9661 55.2727C51.9841 55.5465 52.8214 54.4309 52.2689 53.5287L42.5592 37.679C42.6192 37.6438 42.6819 37.614 42.7474 37.5902L47.6143 35.7962C49.2366 35.2002 50.1961 33.5234 49.8963 31.8105L48.9963 26.646C48.9459 26.3576 48.9981 26.0582 49.1432 25.8037L51.7342 21.2622ZM17.9146 55.7717L16.9368 52.122C16.7692 51.4966 16.1265 51.1259 15.5012 51.2934L11.8107 52.2822L18.826 39.9793L20.3622 42.6719C21.1867 44.1189 22.8735 44.789 24.4427 44.3244L17.9146 55.7717ZM48.7363 52.2492L45.1698 51.2934C44.5441 51.1259 43.9018 51.4971 43.7343 52.122L42.7249 55.8898L35.6795 44.3871C35.934 44.4434 36.1899 44.4713 36.4439 44.4713C37.6854 44.4709 38.8715 43.8126 39.521 42.6723L41.1356 39.842L48.7363 52.2492ZM47.1076 24.6428C46.6928 25.3698 46.5436 26.2244 46.6873 27.0488L47.5873 32.2138C47.6921 32.8103 47.363 33.3921 46.805 33.5971L41.938 35.3907C41.2088 35.6589 40.5881 36.1652 40.1697 36.8221C40.1216 36.8844 40.0809 36.9512 40.047 37.0212L37.4854 41.5119C37.1915 42.0273 36.5794 42.2544 36.0306 42.053C35.8768 41.9962 31.2849 40.3043 31.1604 40.2585C30.3749 39.9701 29.5093 39.9697 28.7224 40.259C28.6281 40.2929 26.5512 41.0587 23.8541 42.053C23.3043 42.2553 22.6923 42.0273 22.3984 41.5114L19.9878 37.2863C19.9324 37.0656 19.8138 36.861 19.639 36.7022C19.2229 36.103 18.6314 35.6429 17.9466 35.3911L13.0783 33.5967C12.5216 33.3921 12.1925 32.8098 12.2964 32.2129L13.1964 27.0488C13.3406 26.2244 13.1914 25.3698 12.7766 24.6428L10.1857 20.1004C9.88538 19.5754 10.0007 18.9112 10.458 18.5221L14.4273 15.1515C15.0636 14.6109 15.4935 13.8579 15.6372 13.0339L16.5372 7.93809C16.6411 7.34574 17.1423 6.91544 17.7292 6.91544H22.9111C23.7469 6.91544 24.5599 6.61607 25.209 6.064L29.1724 2.62757C29.6191 2.2522 30.265 2.2522 30.7118 2.62757L34.6838 6.07179C35.3238 6.61607 36.1372 6.91544 36.974 6.91544H42.155C42.7419 6.91544 43.2431 7.34574 43.347 7.93946L44.2461 13.0335C44.3916 13.8597 44.8215 14.6118 45.4569 15.1515L49.4252 18.5211C49.8834 18.9107 49.9983 19.5749 49.6985 20.1004L47.1076 24.6428Z" fill="#EE901F"/>
<path d="M25.3395 23.747L24.6538 27.7414C24.5783 28.1809 24.7591 28.6254 25.1203 28.8877C25.4769 29.1472 25.9548 29.1866 26.3539 28.9769L29.9419 27.0909L33.5298 28.9769C33.9244 29.1843 34.4028 29.15 34.764 28.8877C35.1247 28.6254 35.3055 28.1813 35.23 27.7414L34.5442 23.747L37.4465 20.918C37.766 20.6067 37.8809 20.1412 37.7431 19.7168C37.6049 19.2925 37.2382 18.9835 36.7969 18.9189L32.786 18.3362L30.9929 14.702C30.7952 14.3019 30.3877 14.0483 29.9419 14.0483C29.4956 14.0483 29.0882 14.3019 28.8909 14.702L27.0978 18.3362L23.0869 18.9189C22.6451 18.9835 22.2785 19.2925 22.1407 19.7168C22.0029 20.1412 22.1178 20.6067 22.4373 20.918L25.3395 23.747ZM28.0445 20.5669C28.4262 20.5115 28.7563 20.2716 28.927 19.926L29.9419 17.8688L30.9572 19.926C31.1275 20.2716 31.4575 20.5115 31.8393 20.5669L34.1103 20.8969L32.4669 22.4987C32.1909 22.7678 32.065 23.1555 32.13 23.5359L32.5182 25.7973L30.4871 24.7298C30.3163 24.6401 30.1291 24.5952 29.9419 24.5952C29.7547 24.5952 29.5674 24.6401 29.3967 24.7298L27.3656 25.7973L27.7538 23.5359C27.8192 23.156 27.6929 22.7678 27.4169 22.4987L25.7735 20.8969L28.0445 20.5669Z" fill="#EE901F"/>
<path fill-rule="evenodd" clip-rule="evenodd" d="M29.4 35.04C36.4914 35.04 42.24 29.2913 42.24 22.2C42.24 15.1087 36.4914 9.36 29.4 9.36C22.3087 9.36 16.56 15.1087 16.56 22.2C16.56 29.2913 22.3087 35.04 29.4 35.04ZM29.4 37.2C37.6843 37.2 44.4 30.4843 44.4 22.2C44.4 13.9157 37.6843 7.2 29.4 7.2C21.1158 7.2 14.4 13.9157 14.4 22.2C14.4 30.4843 21.1158 37.2 29.4 37.2Z" fill="#EE901F"/>
</g>
<defs>
<clipPath id="clip0">
<rect width="59.8829" height="60" fill="white"/>
</clipPath>
</defs>
</svg>
