<svg width="17" height="17" viewBox="0 0 17 17" fill="none" xmlns="http://www.w3.org/2000/svg">
<g clip-path="url(#clip0)">
<path d="M13.721 2.354C12.2136 0.846642 10.1692 -0.000183121 8.0375 -0.000183105C5.90577 -0.00018309 3.86136 0.846642 2.354 2.354C0.846642 3.86136 -0.00018309 5.90577 -0.000183105 8.0375C-0.000183121 10.1692 0.846642 12.2136 2.354 13.721C3.10037 14.4674 3.98643 15.0594 4.96161 15.4634C5.93679 15.8673 6.98198 16.0752 8.0375 16.0752C9.09302 16.0752 10.1382 15.8673 11.1134 15.4634C12.0886 15.0594 12.9746 14.4674 13.721 13.721C14.4674 12.9746 15.0594 12.0886 15.4634 11.1134C15.8673 10.1382 16.0752 9.09302 16.0752 8.0375C16.0752 6.98198 15.8673 5.93679 15.4634 4.96161C15.0594 3.98643 14.4674 3.10037 13.721 2.354V2.354ZM8.037 15.133C6.63275 15.133 5.26004 14.7166 4.09245 13.9364C2.92486 13.1563 2.01484 12.0474 1.47746 10.7501C0.940073 9.4527 0.799469 8.02512 1.07342 6.64786C1.34738 5.27059 2.02359 4.00549 3.01654 3.01254C4.00949 2.01959 5.27459 1.34338 6.65186 1.06942C8.02912 0.795469 9.4567 0.936073 10.7541 1.47345C12.0514 2.01084 13.1603 2.92086 13.9404 4.08845C14.7206 5.25604 15.137 6.62875 15.137 8.033C15.137 8.96539 14.9534 9.88864 14.5965 10.7501C14.2397 11.6115 13.7168 12.3942 13.0575 13.0535C12.3982 13.7128 11.6155 14.2357 10.7541 14.5925C9.89264 14.9494 8.96938 15.133 8.037 15.133V15.133Z" fill="#EE901F"/>
<path d="M11.877 5.459C11.7887 5.3707 11.6689 5.32111 11.544 5.32111C11.4191 5.32111 11.2993 5.3707 11.211 5.459L7.05202 9.61801L4.86302 7.429C4.81957 7.38405 4.76758 7.34822 4.71013 7.32356C4.65268 7.29891 4.5909 7.28594 4.52838 7.28542C4.46586 7.28489 4.40386 7.29681 4.34599 7.3205C4.28813 7.34418 4.23557 7.37913 4.19136 7.42334C4.14715 7.46755 4.11218 7.52013 4.0885 7.57799C4.06482 7.63585 4.0529 7.69784 4.05342 7.76036C4.05395 7.82288 4.06692 7.88467 4.09157 7.94212C4.11622 7.99958 4.15208 8.05154 4.19702 8.095L6.71903 10.617C6.80735 10.7053 6.92712 10.7549 7.05202 10.7549C7.17691 10.7549 7.2967 10.7053 7.38503 10.617L11.877 6.125C11.9653 6.03667 12.0149 5.9169 12.0149 5.79201C12.0149 5.66711 11.9653 5.54733 11.877 5.459V5.459Z" fill="#EE901F"/>
</g>
<defs>
<clipPath id="clip0">
<rect width="16.075" height="16.075" fill="white"/>
</clipPath>
</defs>
</svg>
