<svg width="60" height="60" viewBox="0 0 60 60" fill="none" xmlns="http://www.w3.org/2000/svg">
<g clip-path="url(#clip0)">
<path d="M47.5369 28.959C41.4066 26.5325 34.8358 25.4178 28.2481 25.6864C13.6366 26.1868 0 33.6017 0 42.0885C0 48.7054 9.27661 55.3834 30 55.3834C50.7234 55.3834 60 48.7624 60 42.0885C60 37.1692 55.2237 32.1407 47.5369 28.959ZM41.3831 29.4336C42.9166 29.8153 44.4241 30.2949 45.8963 30.8695V37.0458C45.8963 38.5549 44.8631 39.8302 43.64 39.8302C42.417 39.8302 41.3831 38.5549 41.3831 37.0458V29.4336ZM27.7431 28.0878C29.1966 28.02 30.5736 28.0098 32.2569 28.0878V39.5969C32.2569 41.1054 31.2237 42.3807 30 42.3807C28.7763 42.3807 27.7431 41.1054 27.7431 39.5969V28.0878ZM14.1037 30.8675C15.5776 30.2975 17.0847 29.818 18.6169 29.4315V37.0458C18.6169 38.5549 17.5837 39.8302 16.36 39.8302C15.1363 39.8302 14.1037 38.5549 14.1037 37.0458V30.8675ZM30 53.0105C13.9919 53.0105 2.37288 48.4173 2.37288 42.0885C2.37288 38.4769 5.91864 34.66 11.7288 31.8871V37.0458C11.7288 39.8892 13.8054 42.203 16.358 42.203C18.9105 42.203 20.9878 39.8892 20.9878 37.0458V28.9007C22.3932 28.622 23.8576 28.4058 25.3681 28.258V39.5969C25.3681 42.4403 27.4447 44.7536 29.998 44.7536C32.5512 44.7536 34.6278 42.4403 34.6278 39.5969V28.2573C36.1383 28.4058 37.6014 28.622 39.0081 28.9014V37.0458C39.0081 39.8892 41.0854 42.203 43.638 42.203C46.1905 42.203 48.2671 39.8892 48.2671 37.0458V31.8871C54.0793 34.6593 57.6231 38.4769 57.6231 42.0885C57.6271 48.4173 46.0081 53.0105 30 53.0105V53.0105Z" fill="#EE901F"/>
<path d="M28.1356 17.6349C28.1356 18.2902 28.6668 18.8214 29.3221 18.8214C29.9773 18.8214 30.5085 18.2902 30.5085 17.6349C30.5085 16.2736 31.8644 15.9929 31.8644 13.6898C31.8644 11.4125 30.5085 11.0885 30.5085 9.74542C30.5085 8.40237 31.8644 8.09118 31.8644 5.80305C31.8644 5.14779 31.3332 4.61661 30.678 4.61661C30.0227 4.61661 29.4916 5.14779 29.4916 5.80305C29.4916 7.15084 28.1356 7.45729 28.1356 9.74542C28.1356 12.0227 29.4916 12.3461 29.4916 13.6898C29.4916 15.0336 28.1356 15.3447 28.1356 17.6349Z" fill="#EE901F"/>
<path d="M37.5322 18.9908C37.5322 19.6461 38.0634 20.1773 38.7187 20.1773C39.3739 20.1773 39.9051 19.6461 39.9051 18.9908C39.9051 17.6295 41.261 17.3488 41.261 15.0457C41.261 12.7685 39.9051 12.4444 39.9051 11.1013C39.9051 9.7583 41.261 9.44711 41.261 7.15897C41.261 6.50372 40.7299 5.97253 40.0746 5.97253C39.4193 5.97253 38.8882 6.50372 38.8882 7.15897C38.8882 8.50677 37.5322 8.81321 37.5322 11.1013C37.5322 13.3786 38.8882 13.702 38.8882 15.0457C38.8882 16.3895 37.5322 16.7007 37.5322 18.9908Z" fill="#EE901F"/>
<path d="M18.739 18.9908C18.739 19.6461 19.2702 20.1773 19.9255 20.1773C20.5807 20.1773 21.1119 19.6461 21.1119 18.9908C21.1119 17.6295 22.4678 17.3488 22.4678 15.0457C22.4678 12.7685 21.1119 12.4444 21.1119 11.1013C21.1119 9.7583 22.4678 9.44711 22.4678 7.15897C22.4678 6.50372 21.9366 5.97253 21.2814 5.97253C20.6261 5.97253 20.0949 6.50372 20.0949 7.15897C20.0949 8.50677 18.739 8.81321 18.739 11.1013C18.739 13.3786 20.0949 13.702 20.0949 15.0457C20.0949 16.3895 18.739 16.7007 18.739 18.9908Z" fill="#EE901F"/>
</g>
<defs>
<clipPath id="clip0">
<rect width="60" height="60" fill="white"/>
</clipPath>
</defs>
</svg>
