<svg width="138" height="101" viewBox="0 0 138 101" fill="none" xmlns="http://www.w3.org/2000/svg">
<path d="M22.943 88.816C22.3883 88.9393 21.8336 89.0009 21.2481 89.0009C20.3236 89.0009 19.4915 88.816 18.7519 88.477C18.0123 88.138 17.3344 87.6758 16.6872 87.1211C16.0709 86.5664 15.4854 85.9192 14.9307 85.2105C14.376 84.5017 13.8521 83.7929 13.359 83.0533C12.8351 82.3445 12.3421 81.6665 11.849 80.9886C11.3559 80.3106 10.832 79.7559 10.3082 79.2937C9.90755 78.9547 9.41448 78.7081 8.82897 78.6157C8.24345 78.5232 7.71957 78.4924 7.25732 78.4924C7.07242 78.4924 6.88752 78.4924 6.6718 78.4924C6.4869 78.4924 6.27119 78.4924 6.1171 78.5232V84.6866C6.1171 84.8098 6.14792 84.9947 6.17874 85.2413C6.20955 85.5186 6.27119 85.796 6.33282 86.0733C6.39445 86.3815 6.45609 86.628 6.51772 86.8746C6.57935 87.1211 6.64099 87.2752 6.70262 87.306C6.82589 87.3368 6.94915 87.3984 7.16487 87.3984C7.34977 87.4293 7.50385 87.4293 7.62712 87.4601C7.87365 87.4909 8.12019 87.5217 8.36672 87.5525C8.61325 87.5833 8.85979 87.7066 9.04469 87.8915C9.16795 88.0148 9.19877 88.1072 9.13713 88.2305C9.0755 88.3538 8.95224 88.3846 8.76734 88.3846C7.4114 88.3846 6.08629 88.3846 4.73036 88.3846C3.37442 88.3846 2.04931 88.3538 0.693374 88.2921C0.477658 88.2613 0.354391 88.1689 0.354391 88.0148C0.354391 87.8607 0.446841 87.7374 0.662558 87.7066C1.15562 87.6142 1.52542 87.5217 1.80277 87.3984C2.08012 87.2752 2.26502 87.1211 2.38829 86.9362C2.51156 86.7513 2.57319 86.4739 2.60401 86.135C2.63482 85.796 2.63482 85.3645 2.63482 84.8407V66.4739C2.63482 66.1041 2.60401 65.796 2.51156 65.5803C2.41911 65.3645 2.32666 65.2105 2.17257 65.0872C2.04931 64.9947 1.89522 64.9331 1.74114 64.9023C1.58706 64.8715 1.43297 64.8407 1.27889 64.8098C0.970724 64.779 0.693375 64.7482 0.477658 64.6866C0.261942 64.6249 0.107858 64.4709 0.046225 64.2551C-0.0154083 64.1319 -0.0154083 64.0394 0.046225 63.9778C0.107858 63.9162 0.231125 63.8545 0.385208 63.8545H0.970724H3.15871C3.52851 63.8853 3.89831 63.8853 4.20647 63.8853C4.54546 63.8853 4.88444 63.8545 5.22342 63.8545C5.40832 63.8545 5.62404 63.8545 5.80894 63.8237C5.99384 63.8237 6.17874 63.7929 6.39445 63.7929H8.151C9.0755 63.7929 10 63.8545 10.8937 63.9778C11.7874 64.1011 12.6194 64.3476 13.3898 64.7174C14.1602 65.0872 14.8074 65.6111 15.3621 66.289C15.9168 66.967 16.3174 67.8607 16.5948 68.9701C16.6256 69.0934 16.6564 69.2166 16.6872 69.4015C16.6872 69.5864 16.718 69.7405 16.718 69.8946C16.718 70.5726 16.5948 71.2505 16.379 71.9285C16.1633 72.6065 15.8552 73.2536 15.5162 73.9008C15.1772 74.5479 14.7458 75.1334 14.3143 75.7189C13.8521 76.2736 13.3898 76.7975 12.8968 77.2598C13.2357 77.6296 13.6055 78.0918 14.0062 78.6157C14.4068 79.1396 14.7766 79.6635 15.1772 80.2182C15.8552 81.1118 16.5331 82.0055 17.2419 82.9608C17.9507 83.8853 18.7211 84.7482 19.4915 85.4878C20.2619 86.2274 21.0632 86.8129 21.8952 87.2444C22.7273 87.6758 23.5285 87.8299 24.3914 87.7066L24.5763 88.2613C24.0216 88.5078 23.4977 88.6927 22.943 88.816ZM12.7119 69.3091C12.4961 68.5387 12.188 67.8607 11.7565 67.2444C11.3251 66.628 10.8012 66.135 10.1849 65.7652C9.56857 65.3645 8.82897 65.1796 7.9661 65.1796C7.31895 65.1796 6.70262 65.2721 6.1171 65.4878V76.3969C7.01079 76.5202 7.90447 76.5818 8.85979 76.5818C9.22959 76.5818 9.66102 76.551 10.1541 76.5202C10.6471 76.4893 11.0478 76.3353 11.3559 76.0887C11.6641 75.8422 11.9106 75.5648 12.1263 75.2259C12.3421 74.8869 12.4961 74.5171 12.6502 74.1165C12.7735 73.7159 12.8659 73.3152 12.9276 72.8838C12.9892 72.4524 13.02 72.0518 13.02 71.6511C13.02 70.8499 12.9276 70.0795 12.7119 69.3091Z" fill="#662709"/>
<path d="M38.0431 81.8206C37.396 82.93 36.5331 83.8853 35.4853 84.6249C34.4376 85.3645 33.2665 85.9501 31.9414 86.3199C30.6163 86.6897 29.2912 86.8746 27.9661 86.8746C26.6409 86.8746 25.3466 86.628 24.0832 86.135C22.8197 85.6419 21.6795 84.9639 20.7242 84.1011C19.738 83.2382 18.9676 82.2212 18.3821 81.0502C17.7966 79.8792 17.4884 78.5849 17.4884 77.2289C17.4884 75.7189 17.8274 74.3938 18.4745 73.2228C19.1217 72.0518 19.9846 71.0656 21.0323 70.2644C22.0801 69.4632 23.2819 68.8468 24.607 68.4154C25.9322 67.984 27.3189 67.7991 28.7057 67.7991C30.0616 67.7991 31.3867 68.0764 32.6194 68.6311C33.852 69.1858 34.9614 69.9254 35.9168 70.8499C36.8721 71.7744 37.6117 72.853 38.1972 74.0857C38.7519 75.3183 39.0292 76.6126 39.0292 77.9994C38.9984 79.4169 38.6903 80.7112 38.0431 81.8206ZM35.4853 74.5787C35.0847 73.531 34.5608 72.6065 33.852 71.8052C33.1433 71.004 32.3112 70.3877 31.3251 69.9254C30.3389 69.4632 29.2604 69.2166 28.0585 69.2166C26.9491 69.2166 25.9322 69.4015 25.0077 69.7405C24.0832 70.0795 23.2511 70.6034 22.5731 71.2505C21.8952 71.8977 21.3713 72.6989 21.0015 73.5926C20.6317 74.5171 20.4468 75.534 20.4468 76.7051C20.4468 77.8761 20.6317 78.9855 21.0323 80.0641C21.4329 81.1118 21.9876 82.0672 22.6964 82.8684C23.4052 83.6696 24.2681 84.3168 25.2542 84.779C26.2403 85.2413 27.3497 85.4878 28.5824 85.4878C29.7226 85.4878 30.7396 85.3029 31.6332 84.9331C32.5577 84.5633 33.3282 84.0394 33.9753 83.3615C34.6225 82.6835 35.1155 81.8823 35.4853 80.9269C35.8243 80.0024 36.0092 78.9547 36.0092 77.8145C36.0708 76.7359 35.8551 75.6265 35.4853 74.5787Z" fill="#662709"/>
<path d="M60.94 69.0009C60.7551 69.0317 60.5702 69.0625 60.4469 69.0933H60.4777C60.2004 69.155 59.9538 69.2474 59.6765 69.3707C59.3991 69.494 59.2759 69.648 59.2759 69.8946C59.2759 70.6034 59.2759 71.3121 59.2759 71.9901C59.2759 72.6681 59.2759 73.3152 59.3067 74.024C59.3067 74.6711 59.3067 75.3799 59.3375 76.1195C59.3375 76.8899 59.3683 77.5679 59.3683 78.1842C59.3683 79.6018 59.3375 80.9886 59.3067 82.3753C59.2759 83.7621 59.1834 85.1488 59.0293 86.5356C58.9985 86.6588 58.9369 86.7513 58.7828 86.7821C58.6595 86.8129 58.5055 86.8129 58.3822 86.7205C55.9169 84.8715 53.5748 82.8684 51.3868 80.7728C49.1988 78.6773 47.0417 76.551 44.9153 74.3938H44.9461L43.2204 72.6989C43.1896 72.8838 43.1896 73.0995 43.1896 73.2844C43.1896 73.4693 43.1896 73.685 43.1896 73.9007C43.1896 74.7328 43.2204 75.5648 43.2512 76.3969C43.282 77.2289 43.3128 78.0302 43.3745 78.893C43.4053 79.7251 43.4669 80.5263 43.4669 81.3584C43.4977 82.1904 43.4977 82.9916 43.4977 83.8545C43.4977 84.2243 43.5286 84.5325 43.5902 84.779C43.6518 85.0255 43.7443 85.1796 43.8675 85.3029C43.9908 85.4262 44.1141 85.4878 44.2682 85.5494C44.4222 85.5802 44.5455 85.6419 44.7304 85.6419C44.9153 85.6727 45.131 85.7343 45.3467 85.7651C45.5625 85.796 45.7782 85.8884 45.9631 86.0425C46.148 86.1349 46.2096 86.2274 46.1172 86.3815C46.0555 86.5047 45.9323 86.5664 45.7165 86.5664C45.3467 86.5356 44.9461 86.5356 44.5455 86.5356C44.1449 86.5356 43.7751 86.5664 43.3745 86.5664H42.2034C41.6796 86.5664 41.1865 86.5664 40.6934 86.5356C40.2004 86.5047 39.7073 86.4431 39.245 86.3507C39.0601 86.3198 38.9677 86.1966 38.9985 86.0117C39.0293 85.8268 39.1526 85.7343 39.3375 85.7343H39.7381C40.1079 85.7651 40.4469 85.6727 40.6934 85.457C40.9708 85.2104 41.094 84.9023 41.094 84.44V68.7852C41.094 68.6003 41.1557 68.4462 41.2481 68.3229C41.3714 68.1997 41.4638 68.1072 41.5871 68.0148C41.6487 67.9839 41.7412 67.9531 41.8336 67.9531C41.9261 67.9531 42.0185 67.9839 42.0494 68.0456C44.5763 70.3876 47.1033 72.7605 49.5994 75.1334C52.0956 77.5063 54.5917 79.91 57.0571 82.3445C57.0879 81.6665 57.0879 80.9886 57.0571 80.3414C57.0263 79.6943 57.0263 79.0163 56.9954 78.3383C56.9646 77.7836 56.903 77.1981 56.903 76.5818C56.8722 75.9654 56.8722 75.3799 56.8722 74.8252C56.8722 74.4863 56.8722 74.1165 56.903 73.8083C56.903 73.4693 56.9338 73.1303 56.9338 72.7913V70.7574C56.9338 70.4185 56.903 70.1103 56.8105 69.9254C56.7181 69.7097 56.6256 69.5556 56.4716 69.4631C56.3483 69.3707 56.1942 69.3091 56.0401 69.2782C55.886 69.2474 55.732 69.2166 55.5779 69.1858C55.1464 69.155 54.8075 69.0317 54.5609 68.8776C54.4068 68.816 54.376 68.7235 54.4377 68.5695C54.4993 68.4462 54.6226 68.3846 54.8075 68.3846L56.0093 68.3537C56.8414 68.3229 57.6426 68.3229 58.4438 68.3846C59.2451 68.4154 60.0463 68.4462 60.8167 68.5078L60.94 69.0009Z" fill="#662709"/>
<path d="M81.0632 81.6974C80.416 82.8992 79.5532 83.8853 78.4746 84.6558C77.396 85.3954 76.1325 85.95 74.6841 86.289C73.2358 86.628 71.7566 86.7821 70.1849 86.7821C69.5378 86.7821 68.8906 86.7513 68.2435 86.7205C67.5963 86.6897 66.9492 86.6588 66.302 86.5972C65.5932 86.5664 64.8536 86.5047 64.0832 86.4739C63.3128 86.4431 62.5732 86.4123 61.8952 86.4431C61.6795 86.4431 61.5562 86.3507 61.5254 86.1658C61.4946 85.9809 61.6179 85.8884 61.8336 85.8268C62.5116 85.7035 62.9122 85.5186 63.0971 85.2413C63.282 84.9639 63.3744 84.44 63.3744 83.6696V70.2027C63.3744 69.7713 63.2512 69.494 62.9738 69.3707C62.6965 69.2474 62.4499 69.1858 62.1726 69.1242C61.9877 69.0933 61.772 69.0317 61.5871 68.9701C61.4022 68.9084 61.2789 68.816 61.2173 68.6927C61.1864 68.5695 61.1864 68.477 61.2481 68.4154C61.3097 68.3229 61.433 68.2921 61.5871 68.2921C61.8952 68.2921 62.2034 68.2921 62.5116 68.3229C62.8197 68.3229 63.1279 68.3537 63.4361 68.3846C63.8367 68.4154 64.2681 68.4154 64.6995 68.4462C65.131 68.477 65.5624 68.477 65.9322 68.477C66.8875 68.477 67.8428 68.4462 68.829 68.3846C69.2912 68.3537 69.7843 68.3537 70.339 68.3229C70.8937 68.2921 71.3868 68.2921 71.849 68.2921C72.7427 68.2921 73.7288 68.477 74.869 68.8468C76.0093 69.2166 77.057 69.7097 78.074 70.326C79.0909 70.9423 79.9538 71.7128 80.7242 72.5756C81.4638 73.4385 81.8952 74.363 81.9877 75.3183C82.0185 75.6265 82.0493 75.9346 82.0493 76.2736C82.0493 76.5818 82.0493 76.89 82.0493 77.1981C82.0185 78.9855 81.7103 80.4955 81.0632 81.6974ZM78.1972 74.4246C77.6425 73.346 76.9338 72.4832 76.0401 71.7744C75.1464 71.0656 74.0986 70.5417 72.8968 70.2027C71.6949 69.8638 70.4623 69.6789 69.1371 69.6789C68.7057 69.6789 68.2435 69.7097 67.812 69.7405C67.3806 69.7713 66.9183 69.8638 66.4869 70.0178V82.8068C66.4869 83.4231 66.5794 83.9162 66.7334 84.2551C66.8875 84.5941 67.1341 84.8715 67.473 85.0564C67.7812 85.2413 68.1818 85.3337 68.6133 85.3953C69.0447 85.4262 69.5378 85.457 70.0925 85.457C71.2635 85.457 72.4037 85.3337 73.4823 85.0564C74.5609 84.779 75.5162 84.3784 76.3174 83.7929C77.1495 83.2074 77.7966 82.4678 78.2589 81.5433C78.7519 80.6188 78.9985 79.5094 78.9985 78.1843C79.0293 76.7359 78.7519 75.5032 78.1972 74.4246Z" fill="#662709"/>
<path d="M88.8906 86.5664C88.49 86.5356 88.0894 86.5356 87.7196 86.5664C87.319 86.5972 86.9184 86.5972 86.5178 86.5664L85.2543 86.5356C85.0694 86.5356 84.8537 86.5356 84.5763 86.5664C84.299 86.5972 84.0216 86.5972 83.7443 86.628C83.4361 86.6588 83.1587 86.6588 82.8814 86.6588C82.604 86.6588 82.3883 86.5972 82.2342 86.5356C82.0493 86.4739 81.9877 86.3198 82.0802 86.1349C82.1726 85.9192 82.3267 85.8268 82.5116 85.8884C82.6349 85.9192 82.7273 85.95 82.7889 85.9192C82.8506 85.8884 82.9122 85.8576 82.9738 85.8576C83.1587 85.8576 83.3128 85.796 83.4361 85.6419C83.5594 85.4878 83.6518 85.3029 83.7134 85.0872C83.7751 84.8715 83.8367 84.6557 83.8675 84.4092C83.8983 84.1935 83.9292 83.9778 83.9292 83.8237V70.326C83.9292 69.8946 83.7443 69.5556 83.3745 69.3707C83.0047 69.1858 82.6349 69.0625 82.2342 69.0317C82.0185 69.0009 81.8953 68.9084 81.9261 68.7544C81.9261 68.6003 82.0493 68.5078 82.2651 68.477C82.7889 68.4462 83.3128 68.4462 83.8675 68.477C84.3914 68.5078 84.9153 68.5386 85.4392 68.5386C85.9322 68.5386 86.4561 68.5078 86.9184 68.477C87.4114 68.4462 87.9045 68.4462 88.3976 68.477C88.5825 68.5078 88.7057 68.6003 88.7057 68.7544C88.7057 68.9084 88.6133 69.0009 88.4284 69.0625C87.997 69.1242 87.5963 69.2166 87.2882 69.3707C86.98 69.494 86.8259 69.8329 86.8259 70.3568V83.7621C86.8259 83.8545 86.8567 83.9778 86.8876 84.1627C86.9184 84.3476 86.9492 84.5325 87.0108 84.7174C87.0416 84.9023 87.1033 85.118 87.1649 85.2721C87.2265 85.457 87.2882 85.5802 87.319 85.6419C87.3806 85.6727 87.4731 85.6727 87.6272 85.7035C87.7504 85.7343 87.8737 85.7343 87.997 85.7343C88.2435 85.7343 88.4592 85.7651 88.6441 85.796C88.829 85.8268 89.0139 85.9192 89.1988 86.0733L88.8906 86.5664Z" fill="#662709"/>
<path d="M111.233 69.0009C111.048 69.0317 110.863 69.0625 110.74 69.0933H110.77C110.493 69.155 110.247 69.2474 109.969 69.3707C109.692 69.494 109.569 69.648 109.569 69.8946C109.569 70.6034 109.569 71.3121 109.569 71.9901C109.569 72.6681 109.569 73.3152 109.599 74.024C109.599 74.6711 109.599 75.3799 109.63 76.1195C109.63 76.8899 109.661 77.5679 109.661 78.1842C109.661 79.6018 109.63 80.9886 109.599 82.3753C109.569 83.7621 109.476 85.1488 109.322 86.5356C109.291 86.6588 109.23 86.7513 109.076 86.7821C108.952 86.8129 108.798 86.8129 108.675 86.7205C106.21 84.8715 103.868 82.8684 101.68 80.7728C99.4916 78.6773 97.3344 76.551 95.208 74.3938H95.2389L93.5131 72.6989C93.4823 72.8838 93.4823 73.0995 93.4823 73.2844C93.4823 73.4693 93.4823 73.685 93.4823 73.9007C93.4823 74.7328 93.5131 75.5648 93.5439 76.3969C93.5748 77.2289 93.6056 78.0302 93.6672 78.893C93.698 79.7251 93.7597 80.5263 93.7597 81.3584C93.7905 82.1904 93.7905 82.9916 93.7905 83.8545C93.7905 84.2243 93.8213 84.5325 93.8829 84.779C93.9446 85.0255 94.037 85.1796 94.1603 85.3029C94.2835 85.4262 94.4068 85.4878 94.5609 85.5494C94.715 85.5802 94.8382 85.6419 95.0231 85.6419C95.208 85.6727 95.4238 85.7343 95.6395 85.7651C95.8552 85.796 96.0709 85.8884 96.2558 86.0425C96.4407 86.1349 96.5023 86.2274 96.4099 86.3815C96.3483 86.5047 96.225 86.5664 96.0093 86.5664C95.6395 86.5356 95.2389 86.5356 94.8382 86.5356C94.4376 86.5356 94.0678 86.5664 93.6672 86.5664H92.4962C92.0031 86.5664 91.4792 86.5664 90.9862 86.5356C90.4931 86.5047 90 86.4431 89.5378 86.3507C89.3529 86.3198 89.2604 86.1966 89.2912 86.0117C89.3221 85.8268 89.4453 85.7343 89.6302 85.7343H90.0308C90.4006 85.7651 90.7396 85.6727 90.9862 85.457C91.2635 85.2104 91.3868 84.9023 91.3868 84.44V68.7852C91.3868 68.6003 91.4484 68.4462 91.5409 68.3229C91.6641 68.1997 91.7566 68.1072 91.8798 68.0148C91.9415 67.9839 92.0339 67.9531 92.1264 67.9531C92.2188 67.9531 92.3113 67.9839 92.3421 68.0456C94.8691 70.3876 97.396 72.7605 99.8922 75.1334C102.388 77.5063 104.884 79.91 107.35 82.3445C107.381 81.6665 107.381 80.9886 107.35 80.3414C107.319 79.6943 107.319 79.0163 107.288 78.3383C107.257 77.7836 107.196 77.1981 107.196 76.5818C107.165 75.9654 107.165 75.3799 107.165 74.8252C107.165 74.4863 107.165 74.1165 107.196 73.8083C107.196 73.4693 107.227 73.1303 107.227 72.7913V70.7574C107.227 70.4185 107.196 70.1103 107.103 69.9254C107.011 69.7097 106.918 69.5556 106.764 69.4631C106.641 69.3707 106.487 69.3091 106.333 69.2782C106.179 69.2474 106.025 69.2166 105.871 69.1858C105.439 69.155 105.1 69.0317 104.854 68.8776C104.7 68.816 104.669 68.7235 104.73 68.5695C104.792 68.4462 104.915 68.3846 105.1 68.3846L106.302 68.3537C107.134 68.3229 107.935 68.3229 108.737 68.3846C109.538 68.4154 110.339 68.4462 111.109 68.5078L111.233 69.0009Z" fill="#662709"/>
<path d="M123.22 86.2582L122.943 86.3815C122.82 86.4123 122.542 86.4431 122.173 86.4431C121.803 86.4431 121.402 86.4431 120.971 86.4123C120.539 86.4123 120.139 86.3815 119.738 86.3815C119.337 86.3815 119.091 86.3507 118.937 86.3507C118.598 86.3507 118.228 86.3507 117.889 86.3815C117.55 86.3815 117.18 86.4123 116.841 86.4123C116.04 86.4123 115.239 86.4123 114.468 86.4431C113.667 86.4431 112.897 86.4431 112.126 86.3815C111.941 86.3507 111.818 86.2582 111.849 86.0733C111.849 85.8884 111.972 85.796 112.157 85.796C112.773 85.7651 113.174 85.5802 113.39 85.2104C113.575 84.8406 113.698 84.3784 113.698 83.7621V70.1719C113.698 69.8021 113.606 69.5556 113.39 69.4323C113.174 69.3091 112.958 69.2166 112.712 69.1858C112.527 69.155 112.342 69.0933 112.157 69.0625C111.972 69.0317 111.787 68.9393 111.602 68.816C111.418 68.7235 111.356 68.6311 111.448 68.477C111.51 68.3537 111.633 68.2921 111.849 68.2921C112.065 68.2921 112.311 68.2921 112.619 68.3229C112.928 68.3229 113.297 68.3537 113.698 68.3537C114.345 68.3846 115.023 68.3846 115.794 68.4154C116.533 68.4154 117.304 68.4462 118.074 68.4462C119.183 68.4462 120.169 68.4154 121.094 68.3846C121.988 68.3537 122.604 68.2613 122.912 68.138C123.066 68.1072 123.189 68.1072 123.313 68.1688C123.436 68.2305 123.467 68.3229 123.436 68.4462C123.405 68.8776 123.313 69.2474 123.251 69.6172C123.159 69.9562 123.066 70.326 122.974 70.665C122.943 70.8191 122.881 70.9732 122.881 71.0964C122.851 71.2197 122.82 71.3738 122.789 71.497C122.758 71.6511 122.604 71.7436 122.388 71.7436C122.173 71.7436 122.049 71.6511 122.018 71.4662C121.988 71.0964 121.895 70.7883 121.741 70.5725C121.587 70.3568 121.402 70.1719 121.156 70.0487C120.909 69.9254 120.632 69.8329 120.324 69.8021C120.015 69.7713 119.707 69.7405 119.399 69.7405C119.214 69.7405 119.06 69.7405 118.875 69.7713C118.721 69.7713 118.536 69.8021 118.351 69.8021C118.197 69.8021 118.043 69.8021 117.858 69.8329C117.673 69.8329 117.519 69.8638 117.334 69.8638H116.749V76.1812H120.724C120.847 76.1812 120.971 76.1504 121.156 76.0579C121.34 75.9655 121.525 75.9038 121.71 75.8422H121.679C121.864 75.7497 122.018 75.6265 122.173 75.4724C122.327 75.3183 122.45 75.2259 122.573 75.1642C122.727 75.1334 122.851 75.1334 122.943 75.2259C123.035 75.3183 123.066 75.4108 123.066 75.5032C123.035 75.7806 122.974 76.1195 122.943 76.5202C122.912 76.9208 122.881 77.2597 122.82 77.5371C122.789 77.8144 122.727 78.061 122.696 78.3383C122.666 78.6157 122.604 78.893 122.573 79.2012C122.542 79.3245 122.481 79.3861 122.327 79.4477C122.203 79.4786 122.08 79.4785 121.957 79.3861C121.679 79.232 121.556 79.1396 121.587 79.0779C121.587 79.0163 121.587 78.9547 121.556 78.8314C121.495 78.6465 121.433 78.4308 121.341 78.2767C121.248 78.0918 121.186 77.9994 121.125 77.9377C121.002 77.8453 120.786 77.7836 120.447 77.722C120.108 77.6604 119.738 77.6296 119.337 77.5987C118.937 77.5679 118.536 77.5679 118.136 77.5679C117.735 77.5679 117.396 77.5679 117.149 77.5679H116.718V84.0086C117.057 84.5017 117.581 84.8406 118.197 85.0564C118.844 85.2721 119.43 85.3953 120.015 85.3953C120.724 85.3953 121.371 85.2104 121.957 84.8715C122.542 84.5325 122.943 83.9778 123.159 83.2074C123.189 83.1457 123.251 83.0841 123.313 83.0533C123.405 83.0225 123.498 83.0225 123.59 83.0225C123.683 83.0225 123.775 83.0533 123.837 83.1149C123.898 83.1765 123.929 83.2382 123.929 83.2998L123.22 86.2582Z" fill="#662709"/>
<path d="M137.057 83.1766C137.057 83.2382 137.026 83.2998 137.026 83.3614C136.995 83.7929 136.934 84.2243 136.903 84.6558C136.872 85.0872 136.718 85.4878 136.502 85.8884C136.564 85.9192 136.626 85.9192 136.626 85.9192C136.656 85.9192 136.687 85.9192 136.749 85.9501L136.656 86.5356C136.132 86.5048 135.639 86.4739 135.116 86.4431C134.592 86.4431 134.068 86.4123 133.575 86.4123C133.051 86.4123 132.527 86.4123 131.972 86.4123C131.479 86.4123 130.955 86.4123 130.401 86.4431C129.969 86.4431 129.507 86.4431 129.045 86.4739C128.582 86.4739 128.12 86.5047 127.689 86.5047C126.548 86.5047 125.408 86.4739 124.33 86.4123C124.114 86.3815 123.991 86.289 124.022 86.1041C124.022 85.9192 124.145 85.8268 124.361 85.8268C124.946 85.796 125.347 85.6111 125.562 85.2413C125.747 84.8715 125.871 84.3784 125.871 83.8237V70.326C125.871 69.8329 125.747 69.494 125.532 69.3707C125.285 69.2474 125.069 69.1858 124.823 69.155C124.638 69.1242 124.422 69.0933 124.176 69.0317C123.929 68.9701 123.806 68.8776 123.713 68.7544C123.652 68.6311 123.652 68.5386 123.744 68.4462C123.837 68.3537 123.929 68.3229 124.083 68.3229H125.932C126.271 68.3229 126.579 68.3229 126.918 68.2921C127.226 68.2921 127.565 68.2613 127.904 68.2613C128.397 68.2613 128.891 68.2613 129.384 68.2921C129.877 68.3229 130.37 68.3846 130.832 68.5386C131.017 68.5695 131.079 68.6927 131.079 68.8468C131.048 69.0009 130.955 69.0933 130.74 69.0933H130.339C129.969 69.0625 129.63 69.1242 129.353 69.3399C129.075 69.5556 128.952 69.8638 128.952 70.2644V82.6527C128.952 83.0841 129.045 83.4847 129.23 83.8237C129.414 84.1627 129.661 84.44 129.969 84.6558C130.277 84.8715 130.616 85.0564 130.986 85.1488C131.387 85.2721 131.757 85.3029 132.157 85.3029C132.989 85.3029 133.76 85.0872 134.53 84.6866C135.3 84.2551 135.886 83.6696 136.317 82.8992C136.441 82.7759 136.595 82.7143 136.78 82.7451C136.965 82.7759 137.088 82.8684 137.088 83.0225C137.088 83.0841 137.088 83.1149 137.057 83.1766Z" fill="#662709"/>
<path d="M35.7627 90.0175C36.4098 89.8942 37.3035 89.8018 38.5362 89.8018C39.8613 89.8018 40.8474 90.0791 41.4946 90.603C42.0801 91.096 42.4807 91.8665 42.4807 92.8218C42.4807 93.7771 42.1726 94.5475 41.6179 95.1022C40.8783 95.8418 39.738 96.1808 38.4746 96.1808C38.1356 96.1808 37.8274 96.1808 37.5809 96.1192V99.8788H35.7627V90.0175V90.0175ZM37.5809 94.6708C37.7966 94.7324 38.1048 94.7324 38.4746 94.7324C39.8305 94.7324 40.6625 94.0545 40.6625 92.8834C40.6625 91.774 39.8921 91.1885 38.6286 91.1885C38.1356 91.1885 37.7658 91.2193 37.5809 91.281V94.6708Z" fill="#662709"/>
<path d="M46.9799 99.8792L46.8567 99.0779H46.8258C46.3944 99.6326 45.624 100.033 44.6995 100.033C43.2511 100.033 42.4191 98.9855 42.4191 97.8761C42.4191 96.0579 44.0215 95.1334 46.7026 95.1642V95.041C46.7026 94.5787 46.5177 93.7775 45.2234 93.7775C44.5146 93.7775 43.775 93.9932 43.2819 94.3014L42.9121 93.1303C43.436 92.7914 44.3913 92.4832 45.5315 92.4832C47.8428 92.4832 48.5208 93.9624 48.5208 95.534V98.1534C48.5208 98.8006 48.5516 99.4477 48.6132 99.8792H46.9799V99.8792ZM46.7642 96.3353C45.4699 96.3045 44.2372 96.5818 44.2372 97.6912C44.2372 98.4 44.6995 98.739 45.285 98.739C46.0246 98.739 46.5485 98.2767 46.7026 97.7528C46.7334 97.6296 46.7642 97.4755 46.7642 97.3522V96.3353Z" fill="#662709"/>
<path d="M49.7226 94.7944C49.7226 93.9624 49.7226 93.2536 49.661 92.6373H51.2635L51.3559 93.7159H51.3867C51.6949 93.1612 52.4961 92.4832 53.698 92.4832C54.9615 92.4832 56.2558 93.2844 56.2558 95.5957V99.8792H54.4376V95.8114C54.4376 94.7636 54.037 93.9932 53.0508 93.9932C52.3112 93.9932 51.8182 94.5171 51.6333 95.0718C51.5716 95.2259 51.5716 95.4724 51.5716 95.6573V99.91H49.7226V94.7944V94.7944Z" fill="#662709"/>
<path d="M59.3991 90.6342C59.3991 91.1889 58.9985 91.6203 58.3513 91.6203C57.735 91.6203 57.3344 91.1889 57.3344 90.6342C57.3344 90.0795 57.735 89.6481 58.3513 89.6481C58.9985 89.6481 59.3682 90.0795 59.3991 90.6342ZM57.4576 99.8792V92.6681H59.3066V99.8792H57.4576Z" fill="#662709"/>
<path d="M60.7242 99.8792V94.024H59.738V92.6681H60.7242V92.3291C60.7242 90.3876 62.0801 89.2166 64.2065 89.2166C64.9152 89.2166 65.7781 89.4015 66.1787 89.6789L65.7781 91.0656C65.4391 90.8807 64.8844 90.6958 64.2065 90.6958C62.943 90.6958 62.5115 91.4662 62.5115 92.4215V92.7297H66.8259V99.9408H64.9769V94.0856H62.5115V99.9408H60.7242V99.8792Z" fill="#662709"/>
<path d="M73.359 99.6635C72.9892 99.8484 72.2188 100.033 71.3251 100.033C69.0755 100.033 67.5963 98.5849 67.5963 96.3661C67.5963 94.2089 69.0755 92.514 71.6025 92.514C72.2804 92.514 72.9584 92.6681 73.359 92.853L73.02 94.2089C72.7119 94.0856 72.2804 93.9316 71.6333 93.9316C70.2465 93.9316 69.4145 94.9485 69.4145 96.2736C69.4145 97.7528 70.3698 98.6157 71.6333 98.6157C72.2804 98.6157 72.7119 98.4924 73.0817 98.3383L73.359 99.6635Z" fill="#662709"/>
<path d="M78.0123 99.8792L77.889 99.0779H77.8582C77.4268 99.6326 76.6563 100.033 75.7318 100.033C74.2835 100.033 73.4514 98.9855 73.4514 97.8761C73.4514 96.0579 75.0539 95.1334 77.7349 95.1642V95.041C77.7349 94.5787 77.55 93.7775 76.2557 93.7775C75.5469 93.7775 74.8073 93.9932 74.3143 94.3014L73.9445 93.1303C74.4684 92.7914 75.4237 92.4832 76.5639 92.4832C78.8751 92.4832 79.5531 93.9624 79.5531 95.534V98.1534C79.5531 98.8006 79.5839 99.4477 79.6456 99.8792H78.0123V99.8792ZM77.7966 96.3353C76.5023 96.3045 75.2696 96.5818 75.2696 97.6912C75.2696 98.4 75.7318 98.739 76.3174 98.739C77.057 98.739 77.5808 98.2767 77.7349 97.7528C77.7657 97.6296 77.7966 97.4755 77.7966 97.3522V96.3353Z" fill="#662709"/>
<path d="M87.4114 89.3399V97.8453C87.4114 98.5849 87.4423 99.3861 87.4731 99.8792H85.8398L85.7782 98.739H85.7473C85.3159 99.5402 84.453 100.033 83.4053 100.033C81.6795 100.033 80.3236 98.5541 80.3236 96.3353C80.3236 93.9316 81.8336 92.4832 83.5594 92.4832C84.5455 92.4832 85.2543 92.8838 85.5933 93.4385H85.6241V89.3399H87.4114V89.3399ZM85.5933 95.6573C85.5933 95.5032 85.5933 95.3183 85.5624 95.195C85.4084 94.4863 84.8228 93.9007 83.9908 93.9007C82.8198 93.9007 82.1726 94.9485 82.1726 96.2736C82.1726 97.5987 82.8198 98.5541 83.9908 98.5541C84.7304 98.5541 85.3775 98.061 85.5624 97.2598C85.5933 97.1057 85.6241 96.9208 85.6241 96.7359V95.6573H85.5933Z" fill="#662709"/>
<path d="M95.4853 96.212C95.4853 98.8622 93.6055 100.064 91.7873 100.064C89.7534 100.064 88.1818 98.6465 88.1818 96.3353C88.1818 93.9624 89.7226 92.514 91.9106 92.514C94.0369 92.4832 95.4853 93.9932 95.4853 96.212ZM90.0308 96.2736C90.0308 97.6604 90.7087 98.7082 91.8181 98.7082C92.8659 98.7082 93.5747 97.6912 93.5747 96.2428C93.5747 95.1026 93.0816 93.8391 91.8181 93.8391C90.5546 93.8391 90.0308 95.0718 90.0308 96.2736Z" fill="#662709"/>
<path d="M96.225 94.9793C96.225 93.9932 96.225 93.3152 96.1633 92.6373H97.735L97.7966 94.024H97.8582C98.228 93.0071 99.0601 92.4832 99.8305 92.4832C100.015 92.4832 100.108 92.4832 100.262 92.514V94.2397C100.108 94.2089 99.9538 94.1781 99.7381 94.1781C98.8752 94.1781 98.2589 94.7328 98.1048 95.5649C98.074 95.7189 98.0431 95.9347 98.0431 96.1196V99.8484H96.225V94.9793Z" fill="#662709"/>
<path d="M104.7 99.8792L104.576 99.0779H104.545C104.114 99.6326 103.344 100.033 102.419 100.033C100.971 100.033 100.139 98.9855 100.139 97.8761C100.139 96.0579 101.741 95.1334 104.422 95.1642V95.041C104.422 94.5787 104.237 93.7775 102.943 93.7775C102.234 93.7775 101.495 93.9932 101.002 94.3014L100.632 93.1303C101.156 92.7914 102.111 92.4832 103.251 92.4832C105.562 92.4832 106.24 93.9624 106.24 95.534V98.1534C106.24 98.8006 106.271 99.4477 106.333 99.8792H104.7V99.8792ZM104.453 96.3353C103.159 96.3045 101.926 96.5818 101.926 97.6912C101.926 98.4 102.388 98.739 102.974 98.739C103.713 98.739 104.237 98.2767 104.391 97.7528C104.422 97.6296 104.453 97.4755 104.453 97.3522V96.3353Z" fill="#662709"/>
<path d="M106.672 52.5448C108.243 56.8591 109.569 61.2659 110.616 65.7343C81.7103 53.5001 51.2943 53.5001 22.3883 65.7343C23.621 60.4955 25.3467 55.4416 27.1957 50.4185C22.265 47.6758 17.3035 45.2413 12.1263 43.0225C47.5038 27.8607 85.5008 27.8607 120.878 43.0225C115.948 45.9501 111.263 49.0934 106.672 52.5448Z" fill="#662709"/>
<path d="M67.7812 64.4708H67.4423C50.678 64.3476 47.5655 58.7698 47.1341 57.6604L46.7951 56.8283L47.0725 55.9963C48.3359 52.0826 48.7057 48.1072 48.2127 44.101C41.772 38.3075 35.1156 31.7128 35.1156 25.3645C35.1156 17.1057 41.8336 10.3876 50.0925 10.3876C50.4315 10.3876 50.7705 10.3876 51.1094 10.4185C53.0817 4.3784 58.8136 0.0640678 65.3467 0.0640678C71.3868 0.0640678 76.7489 3.66961 79.0909 9.06253C79.7689 8.97008 80.4161 8.93926 81.094 8.93926C89.3529 8.93926 96.0709 15.6573 96.0709 23.9161C96.0709 31.1581 88.9523 39.4477 84.2065 43.7312C83.9292 50.6342 85.0694 56.6126 85.0694 56.6742L85.2543 57.6295L84.7304 58.4308C84.3606 59.0471 80.5085 64.4708 67.7812 64.4708Z" fill="#FFFCE9"/>
<path d="M93.6363 23.8853C93.6363 16.9516 88.0277 11.343 81.094 11.343C79.8305 11.343 78.6286 11.5279 77.4884 11.8668C76.0708 6.47393 71.171 2.46777 65.3467 2.46777C59.0601 2.46777 53.852 7.09027 52.9275 13.1303C52.0031 12.9146 51.0477 12.7913 50.0924 12.7913C43.1587 12.7913 37.55 18.4 37.55 25.3337C37.55 31.1272 45.285 38.2459 50.493 42.8684C51.1094 46.8745 51.0169 51.5895 49.3528 56.7051C49.3528 56.7051 51.4484 61.8823 67.4422 62.0055C79.4915 62.098 82.6964 57.0749 82.6964 57.0749C82.6964 57.0749 81.4021 50.2336 81.8336 42.5294C87.3497 37.8761 93.6363 29.8638 93.6363 23.8853Z" fill="#FFFCE9"/>
<path d="M93.6363 23.8853C93.6363 16.9516 88.0277 11.343 81.094 11.343C79.8305 11.343 78.6286 11.5279 77.4884 11.8668C76.0708 6.47393 71.171 2.46777 65.3467 2.46777C59.0601 2.46777 53.852 7.09027 52.9275 13.1303C52.0031 12.9146 51.0477 12.7913 50.0924 12.7913C43.1587 12.7913 37.55 18.4 37.55 25.3337C37.55 31.1272 45.285 38.2459 50.493 42.8684C51.1094 46.8745 51.0169 51.5895 49.3528 56.7051C49.3528 56.7051 51.4484 61.8823 67.4422 62.0055C79.4915 62.098 82.6964 57.0749 82.6964 57.0749C82.6964 57.0749 81.4021 50.2336 81.8336 42.5294C87.3497 37.8761 93.6363 29.8638 93.6363 23.8853Z" fill="#EE901F"/>
<path d="M38.1665 48.5078C38.1665 49.9254 37.0262 51.0656 35.6087 51.0656C34.1911 51.0656 33.0509 49.9254 33.0509 48.5078C33.0509 47.0903 34.1911 45.95 35.6087 45.95C37.0262 45.95 38.1665 47.1211 38.1665 48.5078Z" fill="#EEB55B"/>
<path d="M98.2589 48.5078C98.2589 49.9254 97.1187 51.0656 95.7011 51.0656C94.2835 51.0656 93.1433 49.9254 93.1433 48.5078C93.1433 47.0903 94.2835 45.95 95.7011 45.95C97.1187 45.95 98.2589 47.1211 98.2589 48.5078Z" fill="#EEB55B"/>
<path d="M66.0862 54.4246C64.6995 53.8391 62.9429 53.8083 61.8644 54.9793C61.6178 55.2567 61.4329 55.6265 61.3405 56.0271C60.6625 56.1195 60.0154 56.2736 59.4915 56.4277C58.3821 56.7359 57.3035 57.0748 56.1325 56.8899C54.7457 56.6434 53.7288 55.4724 53.6363 54.0856C53.5439 52.4524 55.5778 51.5279 56.8721 52.2058C57.5192 52.5448 58.0123 53.4077 57.6425 54.1473C57.1494 55.1642 55.8859 54.7944 55.362 54.0548C55.2696 53.9007 55.0539 54.024 55.1155 54.2089C55.3929 54.8252 55.7318 55.195 56.5023 55.1334C56.9953 55.1026 57.4268 54.7944 57.6733 54.3938C58.3821 53.2536 57.9506 51.8977 56.5947 51.497C55.0847 51.0348 53.4822 52.0209 53.0508 53.5309C52.5577 55.195 54.0061 56.8283 55.4237 57.383C57.1186 58.061 58.9984 57.1673 60.6317 56.7359C60.7858 56.705 61.0015 56.6434 61.248 56.6126C61.248 57.4755 61.6486 58.3075 62.5731 58.5849C63.4052 58.8006 65.1001 58.0302 64.3605 56.9516C63.8366 56.1812 62.9121 55.9654 61.926 55.9963C62.5115 54.0548 65.4083 54.3938 66.6718 55.4108C67.5654 56.1195 67.5038 57.2906 67.0107 58.2151C66.3944 59.3553 64.9152 59.8792 63.7134 59.7559C63.6209 59.7559 63.6209 59.8792 63.6825 59.8792C67.1648 61.2043 69.7534 55.9346 66.0862 54.4246ZM63.9291 57.383C63.9907 58.0302 63.0354 58.1534 62.6348 57.9685C62.0801 57.722 61.8335 57.1365 61.8335 56.551C62.7889 56.4893 63.8366 56.5818 63.9291 57.383Z" fill="#FFFCE9"/>
<path d="M69.5994 59.91C69.661 59.8792 69.661 59.7559 69.5686 59.7867C68.3359 59.9408 66.8567 59.4169 66.2712 58.2459C65.7781 57.2906 65.7165 56.1504 66.6102 55.4416C67.8736 54.4246 70.7704 54.0856 71.3559 56.0271C70.4006 55.9963 69.4453 56.212 68.9214 56.9824C68.1818 58.061 69.8767 58.8314 70.7088 58.6157C71.6333 58.3692 72.0339 57.5063 72.0339 56.6434C72.2804 56.6742 72.527 56.7359 72.6502 56.7667C74.2835 57.1981 76.1633 58.0918 77.8582 57.4138C79.2758 56.8283 80.7242 55.2259 80.2311 53.5618C79.7997 52.0517 78.1972 51.0964 76.6872 51.5279C75.3005 51.9285 74.8998 53.2844 75.6086 54.4246C75.8552 54.8252 76.2866 55.1334 76.7797 55.1642C77.5501 55.2259 77.8582 54.8561 78.1664 54.2397C78.228 54.0856 78.0431 53.9624 77.9199 54.0856C77.396 54.7944 76.1325 55.1642 75.6394 54.1781C75.3005 53.4385 75.7627 52.5756 76.4099 52.2366C77.7042 51.5587 79.738 52.4832 79.6456 54.1165C79.584 55.5032 78.5362 56.6742 77.1494 56.9208C76.0092 57.1057 74.8998 56.7667 73.7904 56.4585C73.2666 56.3044 72.6194 56.1504 71.9414 56.0579C71.849 55.6573 71.6641 55.2875 71.4176 55.0101C70.339 53.8391 68.5824 53.8699 67.1957 54.4554C63.5901 55.9346 66.1479 61.2043 69.5994 59.91ZM71.4484 56.551C71.4484 57.1057 71.2327 57.6912 70.6471 57.9685C70.2465 58.1534 69.2912 58.0302 69.3528 57.383C69.4761 56.5818 70.5239 56.4893 71.4484 56.551Z" fill="#FFFCE9"/>
<path d="M79.8305 46.5047C79.1834 46.6588 78.567 46.7205 77.8891 46.7205C76.8413 46.7205 75.886 46.5356 75.0231 46.1349C74.1603 45.7343 73.3898 45.2104 72.6811 44.5941C71.9723 43.947 71.2943 43.2382 70.678 42.4061C70.0616 41.6049 69.4453 40.7728 68.8906 39.9408C68.3051 39.1396 67.7196 38.3383 67.1649 37.5679C66.6102 36.7975 65.9939 36.1504 65.4083 35.6265C64.9461 35.2259 64.3914 34.9793 63.7134 34.8561C63.0355 34.7636 62.4499 34.702 61.9261 34.702C61.7103 34.702 61.4946 34.702 61.2481 34.702C61.0324 34.702 60.8167 34.702 60.6009 34.7328V41.7898C60.6009 41.9131 60.6318 42.1288 60.6626 42.4369C60.6934 42.7451 60.755 43.0533 60.8475 43.3923C60.9091 43.7313 61.0016 44.0394 61.0632 44.3168C61.1248 44.5941 61.2173 44.7482 61.2789 44.8098C61.4022 44.8715 61.5871 44.9023 61.8028 44.9331C62.0185 44.9639 62.2034 44.9947 62.3267 44.9947C62.604 45.0255 62.8814 45.0564 63.1895 45.118C63.4669 45.1796 63.7442 45.3029 63.96 45.4878C64.114 45.6111 64.1449 45.7343 64.0832 45.8576C64.0216 45.9809 63.8675 46.0425 63.6518 46.0425C62.111 46.0425 60.5701 46.0425 59.0293 46.0425C57.4885 46.0425 55.9476 46.0117 54.4068 45.9192C54.1603 45.8884 54.0062 45.796 54.0062 45.6111C54.0062 45.4262 54.0986 45.3029 54.376 45.2413C54.9307 45.1488 55.3621 45.0255 55.6703 44.9023C55.9784 44.779 56.1942 44.5941 56.3482 44.3784C56.4715 44.1627 56.564 43.8545 56.5948 43.4539C56.6256 43.0533 56.6256 42.5602 56.6256 41.9439V20.9577C56.6256 20.5263 56.564 20.1873 56.4715 19.9408C56.3791 19.6943 56.2558 19.5094 56.1017 19.3861C55.9476 19.2628 55.7935 19.2012 55.6086 19.1704C55.4237 19.1396 55.2697 19.1088 55.0848 19.0779C54.7458 19.0471 54.4376 19.0163 54.1603 18.9239C53.9137 18.8622 53.7288 18.6773 53.6672 18.4308C53.6056 18.3075 53.6056 18.1843 53.6672 18.1226C53.7288 18.0302 53.8829 17.9994 54.037 17.9994H54.715H57.2111C57.6425 18.0302 58.0432 18.0302 58.413 18.0302C58.7828 18.0302 59.1834 17.9994 59.584 17.9994C59.7997 17.9994 60.0462 17.9994 60.262 17.9685C60.4777 17.9685 60.6934 17.9377 60.9399 17.9377H62.943C63.9908 17.9377 65.0385 17.9994 66.0863 18.1534C67.1033 18.3075 68.0586 18.5849 68.9214 18.9855C69.7843 19.4169 70.5547 20.0024 71.1711 20.7728C71.7874 21.5433 72.2804 22.5602 72.5886 23.8237C72.6502 23.947 72.6811 24.101 72.6811 24.3168C72.6811 24.5325 72.7119 24.7174 72.7119 24.8715C72.7119 25.6419 72.5886 26.4431 72.3421 27.2135C72.0955 27.9839 71.7566 28.7235 71.3559 29.4631C70.9553 30.2027 70.4931 30.8807 69.9692 31.5279C69.4453 32.175 68.9214 32.7605 68.3667 33.2844C68.7674 33.7158 69.1988 34.2397 69.6302 34.8252C70.0617 35.4416 70.5239 36.0271 70.9861 36.6434C71.7566 37.6604 72.527 38.7081 73.359 39.7867C74.1911 40.8653 75.0539 41.8206 75.9476 42.6835C76.8413 43.5155 77.7658 44.1935 78.6903 44.6866C79.6148 45.1796 80.5701 45.3645 81.5254 45.2104L81.7412 45.8576C81.0632 46.1349 80.4469 46.3507 79.8305 46.5047ZM68.1202 24.1627C67.8737 23.269 67.5039 22.4986 67.0416 21.7898C66.5486 21.081 65.963 20.5263 65.2543 20.0949C64.5455 19.6634 63.6826 19.4169 62.7273 19.4169C61.9877 19.4169 61.2789 19.5402 60.6009 19.7559V32.2366C61.6179 32.3907 62.6657 32.4524 63.7442 32.4524C64.1757 32.4524 64.6687 32.4215 65.2234 32.3907C65.7781 32.3291 66.2404 32.175 66.5794 31.8977C66.9184 31.6203 67.2265 31.2813 67.4731 30.8807C67.7196 30.4801 67.9045 30.0795 68.0586 29.6172C68.2127 29.155 68.3051 28.6927 68.3667 28.1997C68.4284 27.7066 68.4592 27.2443 68.4592 26.7821C68.49 25.9192 68.3667 25.0255 68.1202 24.1627Z" fill="#FFFCE9"/>
</svg>
