<svg width="94" height="69" viewBox="0 0 94 69" fill="none" xmlns="http://www.w3.org/2000/svg">
<path d="M16.2522 60.4795C15.875 60.5633 15.4978 60.6052 15.0997 60.6052C14.471 60.6052 13.9052 60.4795 13.4023 60.2489C12.8994 60.0184 12.4384 59.7041 11.9983 59.3269C11.5792 58.9497 11.181 58.5097 10.8039 58.0277C10.4267 57.5457 10.0704 57.0637 9.73513 56.5608C9.37889 56.0788 9.04361 55.6178 8.70832 55.1568C8.37304 54.6958 8.01679 54.3186 7.66055 54.0043C7.38814 53.7738 7.05285 53.6061 6.6547 53.5432C6.25655 53.4804 5.90031 53.4594 5.58598 53.4594C5.46025 53.4594 5.33451 53.4594 5.18783 53.4594C5.0621 53.4594 4.91541 53.4594 4.81063 53.4804V57.6714C4.81063 57.7553 4.83159 57.881 4.85254 58.0486C4.8735 58.2372 4.91541 58.4258 4.95732 58.6144C4.99923 58.824 5.04114 58.9916 5.08305 59.1593C5.12496 59.3269 5.16687 59.4317 5.20878 59.4526C5.2926 59.4736 5.37643 59.5155 5.52311 59.5155C5.64884 59.5365 5.75362 59.5365 5.83744 59.5574C6.00508 59.5784 6.17273 59.5993 6.34037 59.6203C6.50801 59.6412 6.67566 59.7251 6.80139 59.8508C6.88521 59.9346 6.90616 59.9975 6.86425 60.0813C6.82234 60.1651 6.73852 60.1861 6.61279 60.1861C5.69076 60.1861 4.78968 60.1861 3.86764 60.1861C2.94561 60.1861 2.04453 60.1651 1.1225 60.1232C0.975808 60.1023 0.891987 60.0394 0.891987 59.9346C0.891987 59.8298 0.954853 59.746 1.10154 59.7251C1.43683 59.6622 1.68829 59.5993 1.87689 59.5155C2.06548 59.4317 2.19122 59.3269 2.27504 59.2012C2.35886 59.0754 2.40077 58.8868 2.42173 58.6563C2.44268 58.4258 2.44268 58.1325 2.44268 57.7762V45.2868C2.44268 45.0354 2.42173 44.8258 2.35886 44.6791C2.29599 44.5325 2.23313 44.4277 2.12835 44.3439C2.04453 44.281 1.93975 44.2391 1.83498 44.2181C1.7302 44.1972 1.62542 44.1762 1.52065 44.1553C1.31109 44.1343 1.1225 44.1134 0.975808 44.0714C0.829121 44.0295 0.724345 43.9248 0.682434 43.7781C0.640523 43.6942 0.640523 43.6314 0.682434 43.5895C0.724345 43.5476 0.808166 43.5056 0.912942 43.5056H1.31109H2.79892C3.05038 43.5266 3.30185 43.5266 3.5114 43.5266C3.74191 43.5266 3.97242 43.5056 4.20293 43.5056C4.32866 43.5056 4.47535 43.5056 4.60108 43.4847C4.72681 43.4847 4.85254 43.4637 4.99923 43.4637H6.19368C6.82234 43.4637 7.451 43.5056 8.05871 43.5895C8.66641 43.6733 9.2322 43.8409 9.75609 44.0924C10.28 44.3439 10.72 44.7001 11.0972 45.1611C11.4744 45.6221 11.7468 46.2298 11.9354 46.9842C11.9564 47.0681 11.9773 47.1519 11.9983 47.2776C11.9983 47.4033 12.0193 47.5081 12.0193 47.6129C12.0193 48.0739 11.9354 48.5349 11.7888 48.9959C11.6421 49.457 11.4325 49.897 11.202 50.3371C10.9715 50.7771 10.6781 51.1753 10.3847 51.5734C10.0704 51.9506 9.75609 52.3069 9.4208 52.6212C9.65131 52.8727 9.90277 53.187 10.1752 53.5432C10.4476 53.8995 10.6991 54.2557 10.9715 54.6329C11.4325 55.2406 11.8935 55.8483 12.3755 56.4979C12.8575 57.1266 13.3814 57.7134 13.9052 58.2163C14.4291 58.7192 14.974 59.1174 15.5398 59.4107C16.1055 59.7041 16.6504 59.8089 17.2371 59.7251L17.3629 60.1023C16.9857 60.2699 16.6294 60.3956 16.2522 60.4795ZM9.29507 47.2147C9.14838 46.6909 8.93883 46.2298 8.64545 45.8107C8.35208 45.3916 7.99584 45.0563 7.57673 44.8049C7.15763 44.5325 6.6547 44.4067 6.06795 44.4067C5.62789 44.4067 5.20878 44.4696 4.81063 44.6163V52.0345C5.41834 52.1183 6.02604 52.1602 6.67565 52.1602C6.92712 52.1602 7.22049 52.1392 7.55578 52.1183C7.89106 52.0973 8.16348 51.9926 8.37304 51.8249C8.58259 51.6573 8.75023 51.4687 8.89692 51.2382C9.04361 51.0077 9.14838 50.7562 9.25316 50.4838C9.33698 50.2113 9.39985 49.9389 9.44176 49.6456C9.48367 49.3522 9.50462 49.0798 9.50462 48.8073C9.50462 48.2625 9.44176 47.7386 9.29507 47.2147Z" fill="#662709"/>
<path d="M26.5203 55.7226C26.0802 56.477 25.4935 57.1266 24.781 57.6295C24.0685 58.1325 23.2722 58.5306 22.3711 58.7821C21.4701 59.0335 20.569 59.1593 19.6679 59.1593C18.7668 59.1593 17.8867 58.9916 17.0275 58.6563C16.1684 58.3211 15.393 57.86 14.7434 57.2733C14.0728 56.6865 13.5489 55.995 13.1508 55.1987C12.7526 54.4024 12.5431 53.5223 12.5431 52.6003C12.5431 51.5734 12.7736 50.6724 13.2137 49.8761C13.6537 49.0798 14.2405 48.4092 14.953 47.8644C15.6654 47.3195 16.4827 46.9004 17.3838 46.607C18.2848 46.3137 19.2278 46.1879 20.1708 46.1879C21.0929 46.1879 21.9939 46.3765 22.8322 46.7537C23.6704 47.1309 24.4248 47.6338 25.0744 48.2625C25.724 48.8912 26.2269 49.6246 26.6251 50.4628C27.0023 51.301 27.1909 52.1811 27.1909 53.1241C27.1699 54.0881 26.9603 54.9682 26.5203 55.7226ZM24.781 50.7981C24.5086 50.0856 24.1523 49.457 23.6704 48.9121C23.1884 48.3673 22.6226 47.9482 21.952 47.6338C21.2815 47.3195 20.548 47.1519 19.7308 47.1519C18.9764 47.1519 18.2848 47.2776 17.6562 47.5081C17.0275 47.7386 16.4617 48.0949 16.0007 48.5349C15.5397 48.975 15.1835 49.5198 14.932 50.1275C14.6805 50.7562 14.5548 51.4477 14.5548 52.244C14.5548 53.0403 14.6805 53.7947 14.953 54.5281C15.2254 55.2406 15.6026 55.8902 16.0845 56.4351C16.5665 56.9799 17.1533 57.42 17.8238 57.7343C18.4944 58.0486 19.2488 58.2163 20.087 58.2163C20.8624 58.2163 21.5539 58.0905 22.1616 57.8391C22.7902 57.5876 23.3141 57.2314 23.7542 56.7704C24.1942 56.3093 24.5295 55.7645 24.781 55.1149C25.0115 54.4862 25.1372 53.7738 25.1372 52.9984C25.1791 52.265 25.0325 51.5106 24.781 50.7981Z" fill="#662709"/>
<path d="M42.0902 47.0052C41.9645 47.0261 41.8388 47.0471 41.7549 47.068H41.7759C41.5873 47.1099 41.4197 47.1728 41.2311 47.2566C41.0425 47.3405 40.9586 47.4452 40.9586 47.6129C40.9586 48.0949 40.9586 48.5768 40.9586 49.0378C40.9586 49.4989 40.9586 49.9389 40.9796 50.4209C40.9796 50.861 40.9796 51.3429 41.0006 51.8459C41.0006 52.3697 41.0215 52.8308 41.0215 53.2499C41.0215 54.2138 41.0006 55.1568 40.9796 56.0998C40.9586 57.0428 40.8958 57.9858 40.791 58.9287C40.77 59.0126 40.7281 59.0754 40.6234 59.0964C40.5395 59.1173 40.4348 59.1173 40.3509 59.0545C38.6745 57.7972 37.0819 56.4351 35.5941 55.0101C34.1063 53.5851 32.6394 52.1392 31.1935 50.6724H31.2144L30.0409 49.5198C30.02 49.6455 30.02 49.7922 30.02 49.918C30.02 50.0437 30.02 50.1904 30.02 50.3371C30.02 50.9029 30.0409 51.4687 30.0619 52.0344C30.0828 52.6002 30.1038 53.1451 30.1457 53.7318C30.1667 54.2976 30.2086 54.8425 30.2086 55.4083C30.2295 55.974 30.2295 56.5189 30.2295 57.1056C30.2295 57.3571 30.2505 57.5667 30.2924 57.7343C30.3343 57.9019 30.3972 58.0067 30.481 58.0905C30.5648 58.1744 30.6486 58.2163 30.7534 58.2582C30.8582 58.2791 30.942 58.321 31.0677 58.321C31.1935 58.342 31.3402 58.3839 31.4868 58.4049C31.6335 58.4258 31.7802 58.4887 31.906 58.5935C32.0317 58.6563 32.0736 58.7192 32.0107 58.824C31.9688 58.9078 31.885 58.9497 31.7383 58.9497C31.4868 58.9288 31.2144 58.9287 30.942 58.9287C30.6696 58.9287 30.4181 58.9497 30.1457 58.9497H29.3494C28.9932 58.9497 28.6579 58.9497 28.3226 58.9287C27.9873 58.9078 27.652 58.8659 27.3377 58.803C27.212 58.7821 27.1491 58.6982 27.17 58.5725C27.191 58.4468 27.2748 58.3839 27.4006 58.3839H27.673C27.9244 58.4049 28.1549 58.342 28.3226 58.1953C28.5112 58.0277 28.595 57.8181 28.595 57.5038V46.8585C28.595 46.7328 28.6369 46.628 28.6998 46.5442C28.7836 46.4603 28.8465 46.3975 28.9303 46.3346C28.9722 46.3136 29.0351 46.2927 29.0979 46.2927C29.1608 46.2927 29.2237 46.3136 29.2446 46.3556C30.963 47.9482 32.6813 49.5617 34.3787 51.1753C36.0761 52.7888 37.7734 54.4234 39.4499 56.0788C39.4708 55.6178 39.4708 55.1568 39.4499 54.7167C39.4289 54.2767 39.4289 53.8157 39.408 53.3546C39.387 52.9774 39.3451 52.5793 39.3451 52.1602C39.3241 51.7411 39.3241 51.3429 39.3241 50.9657C39.3241 50.7352 39.3241 50.4838 39.3451 50.2742C39.3451 50.0437 39.366 49.8132 39.366 49.5827V48.1996C39.366 47.9691 39.3451 47.7596 39.2822 47.6338C39.2194 47.4871 39.1565 47.3824 39.0517 47.3195C38.9679 47.2566 38.8631 47.2147 38.7583 47.1938C38.6536 47.1728 38.5488 47.1519 38.444 47.1309C38.1506 47.1099 37.9201 47.0261 37.7525 46.9214C37.6477 46.8794 37.6268 46.8166 37.6687 46.7118C37.7106 46.628 37.7944 46.5861 37.9201 46.5861L38.7374 46.5651C39.3032 46.5442 39.848 46.5442 40.3929 46.5861C40.9377 46.607 41.4825 46.628 42.0064 46.6699L42.0902 47.0052Z" fill="#662709"/>
<path d="M55.774 55.6388C55.3339 56.456 54.7472 57.1266 54.0138 57.6505C53.2803 58.1534 52.4212 58.5306 51.4363 58.7611C50.4514 58.9916 49.4455 59.0964 48.3768 59.0964C47.9367 59.0964 47.4967 59.0754 47.0566 59.0545C46.6165 59.0335 46.1765 59.0126 45.7364 58.9707C45.2544 58.9497 44.7515 58.9078 44.2276 58.8868C43.7037 58.8659 43.2008 58.8449 42.7398 58.8659C42.5931 58.8659 42.5093 58.803 42.4883 58.6773C42.4674 58.5516 42.5512 58.4887 42.6979 58.4468C43.1589 58.363 43.4313 58.2372 43.5571 58.0486C43.6828 57.86 43.7457 57.5038 43.7457 56.9799V47.8224C43.7457 47.5291 43.6618 47.3405 43.4732 47.2566C43.2846 47.1728 43.117 47.1309 42.9284 47.089C42.8027 47.068 42.656 47.0261 42.5302 46.9842C42.4045 46.9423 42.3207 46.8794 42.2788 46.7956C42.2578 46.7118 42.2578 46.6489 42.2997 46.607C42.3416 46.5442 42.4255 46.5232 42.5302 46.5232C42.7398 46.5232 42.9493 46.5232 43.1589 46.5442C43.3685 46.5442 43.578 46.5651 43.7876 46.5861C44.06 46.607 44.3534 46.607 44.6467 46.628C44.9401 46.6489 45.2335 46.6489 45.4849 46.6489C46.1346 46.6489 46.7842 46.628 47.4547 46.5861C47.7691 46.5651 48.1044 46.5651 48.4816 46.5442C48.8587 46.5232 49.194 46.5232 49.5084 46.5232C50.1161 46.5232 50.7866 46.6489 51.562 46.9004C52.3373 47.1519 53.0498 47.4872 53.7413 47.9063C54.4329 48.3254 55.0196 48.8492 55.5435 49.436C56.0464 50.0227 56.3398 50.6514 56.4027 51.301C56.4236 51.5106 56.4446 51.7201 56.4446 51.9506C56.4446 52.1602 56.4446 52.3697 56.4446 52.5793C56.4236 53.7947 56.2141 54.8215 55.774 55.6388ZM53.8252 50.6933C53.448 49.9599 52.966 49.3731 52.3583 48.8912C51.7506 48.4092 51.0381 48.0529 50.2208 47.8224C49.4036 47.5919 48.5654 47.4662 47.6643 47.4662C47.3709 47.4662 47.0566 47.4872 46.7632 47.5081C46.4698 47.5291 46.1555 47.5919 45.8621 47.6967V56.3932C45.8621 56.8123 45.925 57.1476 46.0298 57.3781C46.1346 57.6086 46.3022 57.7972 46.5327 57.9229C46.7423 58.0486 47.0147 58.1115 47.3081 58.1534C47.6014 58.1744 47.9367 58.1953 48.3139 58.1953C49.1102 58.1953 49.8856 58.1115 50.619 57.9229C51.3524 57.7343 52.002 57.4619 52.5469 57.0637C53.1127 56.6656 53.5527 56.1627 53.8671 55.534C54.2024 54.9053 54.37 54.1509 54.37 53.2499C54.391 52.265 54.2024 51.4268 53.8252 50.6933Z" fill="#662709"/>
<path d="M61.0966 58.9497C60.8242 58.9288 60.5518 58.9288 60.3003 58.9497C60.0279 58.9707 59.7555 58.9707 59.4831 58.9497L58.6239 58.9288C58.4982 58.9288 58.3515 58.9288 58.1629 58.9497C57.9743 58.9707 57.7857 58.9707 57.5971 58.9916C57.3875 59.0126 57.1989 59.0126 57.0103 59.0126C56.8217 59.0126 56.6751 58.9707 56.5703 58.9288C56.4446 58.8868 56.4026 58.7821 56.4655 58.6563C56.5284 58.5096 56.6331 58.4468 56.7589 58.4887C56.8427 58.5096 56.9056 58.5306 56.9475 58.5096C56.9894 58.4887 57.0313 58.4677 57.0732 58.4677C57.1989 58.4677 57.3037 58.4258 57.3875 58.321C57.4714 58.2163 57.5342 58.0905 57.5761 57.9438C57.618 57.7972 57.66 57.6505 57.6809 57.4828C57.7019 57.3361 57.7228 57.1895 57.7228 57.0847V47.9063C57.7228 47.6129 57.5971 47.3824 57.3456 47.2566C57.0942 47.1309 56.8427 47.0471 56.5703 47.0261C56.4236 47.0052 56.3398 46.9423 56.3607 46.8375C56.3607 46.7328 56.4446 46.6699 56.5912 46.6489C56.9475 46.628 57.3037 46.628 57.6809 46.6489C58.0372 46.6699 58.3934 46.6908 58.7496 46.6908C59.0849 46.6908 59.4412 46.6699 59.7555 46.6489C60.0908 46.628 60.4261 46.628 60.7613 46.6489C60.8871 46.6699 60.9709 46.7328 60.9709 46.8375C60.9709 46.9423 60.908 47.0052 60.7823 47.0471C60.4889 47.089 60.2165 47.1519 60.007 47.2566C59.7974 47.3405 59.6926 47.571 59.6926 47.9272V57.0428C59.6926 57.1056 59.7136 57.1895 59.7345 57.3152C59.7555 57.4409 59.7764 57.5667 59.8184 57.6924C59.8393 57.8181 59.8812 57.9648 59.9231 58.0696C59.965 58.1953 60.007 58.2791 60.0279 58.321C60.0698 58.342 60.1327 58.342 60.2375 58.363C60.3213 58.3839 60.4051 58.3839 60.4889 58.3839C60.6566 58.3839 60.8033 58.4049 60.929 58.4258C61.0547 58.4468 61.1805 58.5096 61.3062 58.6144L61.0966 58.9497Z" fill="#662709"/>
<path d="M76.2892 47.0052C76.1635 47.0261 76.0377 47.0471 75.9539 47.068H75.9749C75.7863 47.1099 75.6186 47.1728 75.43 47.2566C75.2414 47.3405 75.1576 47.4452 75.1576 47.6129C75.1576 48.0949 75.1576 48.5768 75.1576 49.0378C75.1576 49.4989 75.1576 49.9389 75.1786 50.4209C75.1786 50.861 75.1786 51.3429 75.1995 51.8459C75.1995 52.3697 75.2205 52.8308 75.2205 53.2499C75.2205 54.2138 75.1995 55.1568 75.1786 56.0998C75.1576 57.0428 75.0948 57.9858 74.99 58.9287C74.969 59.0126 74.9271 59.0754 74.8223 59.0964C74.7385 59.1173 74.6337 59.1173 74.5499 59.0545C72.8735 57.7972 71.2809 56.4351 69.7931 55.0101C68.3052 53.5851 66.8384 52.1392 65.3924 50.6724H65.4134L64.2399 49.5198C64.2189 49.6455 64.2189 49.7922 64.2189 49.918C64.2189 50.0437 64.2189 50.1904 64.2189 50.3371C64.2189 50.9029 64.2399 51.4687 64.2609 52.0344C64.2818 52.6002 64.3028 53.1451 64.3447 53.7318C64.3656 54.2976 64.4075 54.8425 64.4075 55.4083C64.4285 55.974 64.4285 56.5189 64.4285 57.1056C64.4285 57.3571 64.4495 57.5667 64.4914 57.7343C64.5333 57.9019 64.5961 58.0067 64.68 58.0905C64.7638 58.1744 64.8476 58.2163 64.9524 58.2582C65.0572 58.2791 65.141 58.321 65.2667 58.321C65.3924 58.342 65.5391 58.3839 65.6858 58.4049C65.8325 58.4258 65.9792 58.4887 66.1049 58.5935C66.2307 58.6563 66.2726 58.7192 66.2097 58.824C66.1678 58.9078 66.084 58.9497 65.9373 58.9497C65.6858 58.9288 65.4134 58.9287 65.141 58.9287C64.8686 58.9287 64.6171 58.9497 64.3447 58.9497H63.5484C63.2131 58.9497 62.8568 58.9497 62.5216 58.9287C62.1863 58.9078 61.851 58.8659 61.5367 58.803C61.4109 58.7821 61.3481 58.6982 61.369 58.5725C61.39 58.4468 61.4738 58.3839 61.5995 58.3839H61.8719C62.1234 58.4049 62.3539 58.342 62.5216 58.1953C62.7102 58.0277 62.794 57.8181 62.794 57.5038V46.8585C62.794 46.7328 62.8359 46.628 62.8988 46.5442C62.9826 46.4603 63.0454 46.3975 63.1293 46.3346C63.1712 46.3136 63.234 46.2927 63.2969 46.2927C63.3598 46.2927 63.4226 46.3136 63.4436 46.3556C65.1619 47.9482 66.8803 49.5617 68.5776 51.1753C70.275 52.7888 71.9724 54.4234 73.6488 56.0788C73.6698 55.6178 73.6698 55.1568 73.6488 54.7167C73.6279 54.2767 73.6279 53.8157 73.6069 53.3546C73.586 52.9774 73.5441 52.5793 73.5441 52.1602C73.5231 51.7411 73.5231 51.3429 73.5231 50.9657C73.5231 50.7352 73.5231 50.4838 73.5441 50.2742C73.5441 50.0437 73.565 49.8132 73.565 49.5827V48.1996C73.565 47.9691 73.5441 47.7596 73.4812 47.6338C73.4183 47.4871 73.3555 47.3824 73.2507 47.3195C73.1669 47.2566 73.0621 47.2147 72.9573 47.1938C72.8525 47.1728 72.7478 47.1519 72.643 47.1309C72.3496 47.1099 72.1191 47.0261 71.9515 46.9214C71.8467 46.8794 71.8257 46.8166 71.8676 46.7118C71.9095 46.628 71.9934 46.5861 72.1191 46.5861L72.9364 46.5651C73.5022 46.5442 74.047 46.5442 74.5918 46.5861C75.1367 46.607 75.6815 46.628 76.2054 46.6699L76.2892 47.0052Z" fill="#662709"/>
<path d="M84.4408 58.7402L84.2522 58.824C84.1684 58.8449 83.9798 58.8659 83.7283 58.8659C83.4769 58.8659 83.2044 58.8659 82.9111 58.8449C82.6177 58.8449 82.3453 58.824 82.0728 58.824C81.8004 58.824 81.6328 58.803 81.528 58.803C81.2975 58.803 81.046 58.803 80.8155 58.824C80.585 58.824 80.3336 58.8449 80.103 58.8449C79.5582 58.8449 79.0134 58.8449 78.4895 58.8659C77.9447 58.8659 77.4208 58.8659 76.8969 58.824C76.7712 58.803 76.6873 58.7402 76.7083 58.6144C76.7083 58.4887 76.7921 58.4258 76.9178 58.4258C77.3369 58.4049 77.6094 58.2791 77.7561 58.0277C77.8818 57.7762 77.9656 57.4619 77.9656 57.0428V47.8015C77.9656 47.55 77.9027 47.3824 77.7561 47.2986C77.6094 47.2147 77.4627 47.1519 77.295 47.1309C77.1693 47.11 77.0436 47.068 76.9178 47.0471C76.7921 47.0261 76.6664 46.9633 76.5406 46.8794C76.4149 46.8166 76.373 46.7537 76.4359 46.6489C76.4778 46.5651 76.5616 46.5232 76.7083 46.5232C76.855 46.5232 77.0226 46.5232 77.2322 46.5442C77.4417 46.5442 77.6932 46.5651 77.9656 46.5651C78.4057 46.5861 78.8667 46.5861 79.3906 46.607C79.8935 46.607 80.4174 46.628 80.9413 46.628C81.6956 46.628 82.3662 46.607 82.9949 46.5861C83.6026 46.5651 84.0217 46.5022 84.2312 46.4184C84.336 46.3975 84.4198 46.3975 84.5037 46.4394C84.5875 46.4813 84.6084 46.5442 84.5875 46.628C84.5665 46.9214 84.5037 47.1728 84.4618 47.4243C84.3989 47.6548 84.336 47.9063 84.2732 48.1368C84.2522 48.2415 84.2103 48.3463 84.2103 48.4301C84.1893 48.514 84.1684 48.6187 84.1474 48.7026C84.1265 48.8073 84.0217 48.8702 83.875 48.8702C83.7283 48.8702 83.6445 48.8073 83.6235 48.6816C83.6026 48.4301 83.5397 48.2206 83.4349 48.0739C83.3302 47.9272 83.2044 47.8015 83.0368 47.7177C82.8691 47.6338 82.6806 47.571 82.471 47.55C82.2614 47.5291 82.0519 47.5081 81.8423 47.5081C81.7166 47.5081 81.6118 47.5081 81.4861 47.5291C81.3813 47.5291 81.2556 47.55 81.1299 47.55C81.0251 47.55 80.9203 47.55 80.7946 47.571C80.6688 47.571 80.5641 47.5919 80.4383 47.5919H80.0402V51.8878H82.7434C82.8272 51.8878 82.9111 51.8668 83.0368 51.8039C83.1625 51.7411 83.2883 51.6992 83.414 51.6573H83.393C83.5188 51.5944 83.6235 51.5106 83.7283 51.4058C83.8331 51.301 83.9169 51.2382 84.0007 51.1962C84.1055 51.1753 84.1893 51.1753 84.2522 51.2381C84.3151 51.301 84.336 51.3639 84.336 51.4267C84.3151 51.6153 84.2732 51.8459 84.2522 52.1183C84.2312 52.3907 84.2103 52.6212 84.1684 52.8098C84.1474 52.9984 84.1055 53.166 84.0846 53.3546C84.0636 53.5432 84.0217 53.7318 84.0007 53.9414C83.9798 54.0252 83.9379 54.0671 83.8331 54.109C83.7493 54.13 83.6654 54.13 83.5816 54.0671C83.393 53.9623 83.3092 53.8995 83.3302 53.8576C83.3302 53.8157 83.3302 53.7737 83.3092 53.6899C83.2673 53.5642 83.2254 53.4175 83.1625 53.3127C83.0997 53.187 83.0577 53.1241 83.0158 53.0822C82.932 53.0194 82.7853 52.9774 82.5548 52.9355C82.3243 52.8936 82.0728 52.8727 81.8004 52.8517C81.528 52.8308 81.2556 52.8308 80.9832 52.8308C80.7108 52.8308 80.4802 52.8308 80.3126 52.8308H80.0192V57.2104C80.2497 57.5457 80.606 57.7762 81.0251 57.9229C81.4651 58.0696 81.8633 58.1534 82.2614 58.1534C82.7434 58.1534 83.1835 58.0277 83.5816 57.7972C83.9798 57.5667 84.2522 57.1895 84.3989 56.6656C84.4198 56.6237 84.4618 56.5818 84.5037 56.5608C84.5665 56.5398 84.6294 56.5398 84.6923 56.5398C84.7551 56.5398 84.818 56.5608 84.8599 56.6027C84.9018 56.6446 84.9228 56.6865 84.9228 56.7284L84.4408 58.7402Z" fill="#662709"/>
<path d="M93.8497 56.6446C93.8497 56.6865 93.8288 56.7284 93.8288 56.7704C93.8078 57.0637 93.7659 57.3571 93.745 57.6505C93.724 57.9439 93.6192 58.2163 93.4726 58.4887C93.5145 58.5096 93.5564 58.5096 93.5564 58.5096C93.5773 58.5096 93.5983 58.5096 93.6402 58.5306L93.5773 58.9288C93.2211 58.9078 92.8858 58.8868 92.5296 58.8659C92.1733 58.8659 91.8171 58.8449 91.4818 58.8449C91.1256 58.8449 90.7693 58.8449 90.3921 58.8449C90.0568 58.8449 89.7006 58.8449 89.3234 58.8659C89.03 58.8659 88.7157 58.8659 88.4014 58.8868C88.087 58.8868 87.7727 58.9078 87.4793 58.9078C86.704 58.9078 85.9286 58.8868 85.1952 58.8449C85.0485 58.824 84.9647 58.7611 84.9856 58.6354C84.9856 58.5096 85.0695 58.4468 85.2162 58.4468C85.6143 58.4258 85.8867 58.3001 86.0334 58.0486C86.1591 57.7972 86.243 57.4619 86.243 57.0847V47.9063C86.243 47.571 86.1591 47.3405 86.0125 47.2566C85.8448 47.1728 85.6981 47.1309 85.5305 47.11C85.4048 47.089 85.2581 47.068 85.0904 47.0261C84.9228 46.9842 84.839 46.9214 84.7761 46.8375C84.7342 46.7537 84.7342 46.6908 84.7971 46.628C84.8599 46.5651 84.9228 46.5442 85.0276 46.5442H86.2849C86.5154 46.5442 86.7249 46.5442 86.9554 46.5232C87.165 46.5232 87.3955 46.5023 87.626 46.5023C87.9613 46.5023 88.2966 46.5022 88.6319 46.5232C88.9672 46.5442 89.3024 46.5861 89.6168 46.6908C89.7425 46.7118 89.7844 46.7956 89.7844 46.9004C89.7635 47.0052 89.7006 47.068 89.5539 47.068H89.2815C89.03 47.0471 88.7995 47.089 88.6109 47.2357C88.4223 47.3824 88.3385 47.5919 88.3385 47.8643V56.2884C88.3385 56.5818 88.4014 56.8542 88.5271 57.0847C88.6528 57.3152 88.8205 57.5038 89.03 57.6505C89.2396 57.7972 89.4701 57.9229 89.7216 57.9858C89.994 58.0696 90.2454 58.0905 90.5179 58.0905C91.0836 58.0905 91.6075 57.9439 92.1314 57.6714C92.6553 57.3781 93.0534 56.9799 93.3468 56.456C93.4306 56.3722 93.5354 56.3303 93.6611 56.3512C93.7869 56.3722 93.8707 56.4351 93.8707 56.5399C93.8707 56.5818 93.8707 56.6027 93.8497 56.6446Z" fill="#662709"/>
<path d="M24.9696 61.2964C25.4097 61.2126 26.0174 61.1498 26.8556 61.1498C27.7567 61.1498 28.4272 61.3384 28.8673 61.6946C29.2654 62.0299 29.5379 62.5538 29.5379 63.2034C29.5379 63.853 29.3283 64.3769 28.9511 64.7541C28.4482 65.257 27.6728 65.4875 26.8137 65.4875C26.5832 65.4875 26.3736 65.4875 26.206 65.4456V68.0021H24.9696V61.2964V61.2964ZM26.206 64.4607C26.3527 64.5026 26.5622 64.5026 26.8137 64.5026C27.7357 64.5026 28.3015 64.0416 28.3015 63.2453C28.3015 62.4909 27.7776 62.0928 26.9184 62.0928C26.5832 62.0928 26.3317 62.1137 26.206 62.1556V64.4607Z" fill="#662709"/>
<path d="M32.5973 68.0024L32.5135 67.4576H32.4925C32.1991 67.8348 31.6753 68.1072 31.0466 68.1072C30.0617 68.1072 29.4959 67.3947 29.4959 66.6403C29.4959 65.404 30.5856 64.7753 32.4087 64.7963V64.7124C32.4087 64.3981 32.283 63.8533 31.4028 63.8533C30.9209 63.8533 30.4179 63.9999 30.0827 64.2095L29.8312 63.4132C30.1874 63.1827 30.837 62.9731 31.6124 62.9731C33.184 62.9731 33.6451 63.979 33.6451 65.0477V66.8289C33.6451 67.269 33.666 67.709 33.7079 68.0024H32.5973V68.0024ZM32.4506 65.5926C31.5705 65.5716 30.7323 65.7602 30.7323 66.5146C30.7323 66.9966 31.0466 67.2271 31.4448 67.2271C31.9477 67.2271 32.3039 66.9127 32.4087 66.5565C32.4297 66.4727 32.4506 66.3679 32.4506 66.2841V65.5926Z" fill="#662709"/>
<path d="M34.4624 64.5448C34.4624 63.979 34.4624 63.497 34.4205 63.0779H35.5102L35.5731 63.8113H35.594C35.8036 63.4342 36.3484 62.9731 37.1657 62.9731C38.0248 62.9731 38.905 63.518 38.905 65.0896V68.0024H37.6686V65.2363C37.6686 64.5238 37.3962 63.9999 36.7256 63.9999C36.2227 63.9999 35.8874 64.3562 35.7617 64.7334C35.7198 64.8382 35.7198 65.0058 35.7198 65.1315V68.0234H34.4624V64.5448V64.5448Z" fill="#662709"/>
<path d="M41.0424 61.7158C41.0424 62.093 40.77 62.3864 40.3299 62.3864C39.9108 62.3864 39.6384 62.093 39.6384 61.7158C39.6384 61.3386 39.9108 61.0452 40.3299 61.0452C40.77 61.0452 41.0214 61.3386 41.0424 61.7158ZM39.7222 68.0024V63.0989H40.9795V68.0024H39.7222Z" fill="#662709"/>
<path d="M41.9435 68.0024V64.0209H41.2729V63.0989H41.9435V62.8683C41.9435 61.5482 42.8655 60.7519 44.3114 60.7519C44.7934 60.7519 45.3801 60.8776 45.6525 61.0662L45.3801 62.0092C45.1496 61.8834 44.7724 61.7577 44.3114 61.7577C43.4522 61.7577 43.1589 62.2816 43.1589 62.9312V63.1408H46.0926V68.0443H44.8353V64.0628H43.1589V68.0443H41.9435V68.0024Z" fill="#662709"/>
<path d="M50.5352 67.8557C50.2837 67.9815 49.7598 68.1072 49.1521 68.1072C47.6224 68.1072 46.6165 67.1223 46.6165 65.6135C46.6165 64.1466 47.6224 62.9941 49.3407 62.9941C49.8017 62.9941 50.2627 63.0989 50.5352 63.2246L50.3047 64.1466C50.0951 64.0628 49.8017 63.958 49.3617 63.958C48.4187 63.958 47.8529 64.6496 47.8529 65.5506C47.8529 66.5565 48.5025 67.1432 49.3617 67.1432C49.8017 67.1432 50.0951 67.0594 50.3466 66.9546L50.5352 67.8557Z" fill="#662709"/>
<path d="M53.6993 68.0024L53.6155 67.4576H53.5946C53.3012 67.8348 52.7773 68.1072 52.1487 68.1072C51.1638 68.1072 50.598 67.3947 50.598 66.6403C50.598 65.404 51.6876 64.7753 53.5107 64.7963V64.7124C53.5107 64.3981 53.385 63.8533 52.5049 63.8533C52.0229 63.8533 51.52 63.9999 51.1847 64.2095L50.9332 63.4132C51.2895 63.1827 51.9391 62.9731 52.7144 62.9731C54.2861 62.9731 54.7471 63.979 54.7471 65.0477V66.8289C54.7471 67.269 54.7681 67.709 54.81 68.0024H53.6993V68.0024ZM53.5527 65.5926C52.6725 65.5716 51.8343 65.7602 51.8343 66.5146C51.8343 66.9966 52.1487 67.2271 52.5468 67.2271C53.0497 67.2271 53.406 66.9127 53.5107 66.5565C53.5317 66.4727 53.5527 66.3679 53.5527 66.2841V65.5926Z" fill="#662709"/>
<path d="M60.0908 60.8357V66.6194C60.0908 67.1223 60.1117 67.6671 60.1327 68.0024H59.0221L58.9802 67.2271H58.9592C58.6658 67.7719 58.0791 68.1072 57.3666 68.1072C56.1931 68.1072 55.2711 67.1013 55.2711 65.5925C55.2711 63.958 56.2979 62.9731 57.4714 62.9731C58.1419 62.9731 58.6239 63.2456 58.8544 63.6227H58.8754V60.8357H60.0908V60.8357ZM58.8544 65.1315C58.8544 65.0268 58.8544 64.901 58.8335 64.8172C58.7287 64.3352 58.3305 63.9371 57.7647 63.9371C56.9684 63.9371 56.5284 64.6496 56.5284 65.5506C56.5284 66.4517 56.9684 67.1013 57.7647 67.1013C58.2677 67.1013 58.7077 66.766 58.8335 66.2212C58.8544 66.1164 58.8754 65.9907 58.8754 65.865V65.1315H58.8544Z" fill="#662709"/>
<path d="M65.581 65.5087C65.581 67.3109 64.3028 68.1281 63.0664 68.1281C61.6833 68.1281 60.6146 67.1642 60.6146 65.5926C60.6146 63.979 61.6624 62.9941 63.1502 62.9941C64.5961 62.9731 65.581 63.9999 65.581 65.5087ZM61.8719 65.5506C61.8719 66.4936 62.333 67.2061 63.0874 67.2061C63.7998 67.2061 64.2818 66.5146 64.2818 65.5297C64.2818 64.7543 63.9465 63.8952 63.0874 63.8952C62.2282 63.8952 61.8719 64.7334 61.8719 65.5506Z" fill="#662709"/>
<path d="M66.084 64.6705C66.084 63.9999 66.084 63.5389 66.0421 63.0779H67.1108L67.1527 64.0209H67.1946C67.4461 63.3294 68.0119 62.9731 68.5357 62.9731C68.6615 62.9731 68.7243 62.9731 68.8291 62.9941V64.1676C68.7243 64.1466 68.6196 64.1257 68.4729 64.1257C67.8861 64.1257 67.467 64.5029 67.3622 65.0687C67.3413 65.1734 67.3203 65.3201 67.3203 65.4459V67.9815H66.084V64.6705Z" fill="#662709"/>
<path d="M71.8467 68.0024L71.7629 67.4576H71.7419C71.4485 67.8348 70.9247 68.1072 70.296 68.1072C69.3111 68.1072 68.7453 67.3947 68.7453 66.6403C68.7453 65.404 69.835 64.7753 71.6581 64.7963V64.7124C71.6581 64.3981 71.5324 63.8533 70.6522 63.8533C70.1703 63.8533 69.6673 63.9999 69.332 64.2095L69.0806 63.4132C69.4368 63.1827 70.0864 62.9731 70.8618 62.9731C72.4334 62.9731 72.8945 63.979 72.8945 65.0477V66.8289C72.8945 67.269 72.9154 67.709 72.9573 68.0024H71.8467V68.0024ZM71.679 65.5926C70.7989 65.5716 69.9607 65.7602 69.9607 66.5146C69.9607 66.9966 70.275 67.2271 70.6732 67.2271C71.1761 67.2271 71.5324 66.9127 71.6371 66.5565C71.6581 66.4727 71.679 66.3679 71.679 66.2841V65.5926Z" fill="#662709"/>
<path d="M73.1878 35.815C74.2565 38.7488 75.1576 41.7454 75.8701 44.7839C56.214 36.4647 35.5311 36.4647 15.875 44.7839C16.7132 41.2215 17.8867 37.7848 19.1441 34.3691C15.7912 32.5041 12.4174 30.8486 8.89691 29.3398C32.9536 19.0298 58.7915 19.0298 82.8482 29.3398C79.4954 31.3306 76.3102 33.468 73.1878 35.815Z" fill="#662709"/>
<path d="M46.7423 43.9247H46.5118C35.1121 43.8409 32.9956 40.048 32.7022 39.2936L32.4717 38.7278L32.6603 38.162C33.5195 35.5007 33.771 32.7975 33.4357 30.0733C29.056 26.1337 24.5297 21.6492 24.5297 17.3324C24.5297 11.7164 29.0979 7.14817 34.7139 7.14817C34.9445 7.14817 35.175 7.14817 35.4055 7.16912C36.7466 3.06188 40.6443 0.128136 45.0868 0.128136C49.1941 0.128136 52.8403 2.57991 54.4329 6.24709C54.8939 6.18422 55.334 6.16327 55.795 6.16327C61.411 6.16327 65.9793 10.7315 65.9793 16.3475C65.9793 21.272 61.1386 26.909 57.9115 29.8218C57.7229 34.5158 58.4982 38.5811 58.4982 38.623L58.624 39.2727L58.2677 39.8175C58.0163 40.2366 55.3968 43.9247 46.7423 43.9247Z" fill="#FFFCE9"/>
<path d="M64.3237 16.3266C64.3237 11.6117 60.5099 7.79779 55.7949 7.79779C54.9358 7.79779 54.1185 7.92352 53.3432 8.15403C52.3792 4.48685 49.0473 1.76266 45.0868 1.76266C40.8119 1.76266 37.2704 4.90595 36.6418 9.0132C36.0131 8.86651 35.3635 8.78269 34.7139 8.78269C29.9989 8.78269 26.1851 12.5966 26.1851 17.3115C26.1851 21.2511 31.4448 26.0918 34.9863 29.2351C35.4054 31.9593 35.3425 35.1654 34.2109 38.644C34.2109 38.644 35.6359 42.1645 46.5117 42.2483C54.7052 42.3112 56.8846 38.8955 56.8846 38.8955C56.8846 38.8955 56.0045 34.2434 56.2979 29.0046C60.0489 25.8403 64.3237 20.3919 64.3237 16.3266Z" fill="#FFFCE9"/>
<path d="M64.3237 16.3266C64.3237 11.6117 60.5099 7.79779 55.7949 7.79779C54.9358 7.79779 54.1185 7.92352 53.3432 8.15403C52.3792 4.48685 49.0473 1.76266 45.0868 1.76266C40.8119 1.76266 37.2704 4.90595 36.6418 9.0132C36.0131 8.86651 35.3635 8.78269 34.7139 8.78269C29.9989 8.78269 26.1851 12.5966 26.1851 17.3115C26.1851 21.2511 31.4448 26.0918 34.9863 29.2351C35.4054 31.9593 35.3425 35.1654 34.2109 38.644C34.2109 38.644 35.6359 42.1645 46.5117 42.2483C54.7052 42.3112 56.8846 38.8955 56.8846 38.8955C56.8846 38.8955 56.0045 34.2434 56.2979 29.0046C60.0489 25.8403 64.3237 20.3919 64.3237 16.3266Z" fill="#EE901F"/>
<path d="M26.6041 33.0699C26.6041 34.0338 25.8288 34.8092 24.8648 34.8092C23.9009 34.8092 23.1255 34.0338 23.1255 33.0699C23.1255 32.1059 23.9009 31.3306 24.8648 31.3306C25.8288 31.3306 26.6041 32.1269 26.6041 33.0699Z" fill="#EEB55B"/>
<path d="M67.467 33.0699C67.467 34.0338 66.6917 34.8092 65.7278 34.8092C64.7638 34.8092 63.9885 34.0338 63.9885 33.0699C63.9885 32.1059 64.7638 31.3306 65.7278 31.3306C66.6917 31.3306 67.467 32.1269 67.467 33.0699Z" fill="#EEB55B"/>
<path d="M45.5896 37.0933C44.6467 36.6952 43.4522 36.6742 42.7188 37.4705C42.5511 37.6591 42.4254 37.9106 42.3625 38.183C41.9015 38.2459 41.4614 38.3506 41.1052 38.4554C40.3508 38.665 39.6174 38.8955 38.8211 38.7697C37.8781 38.6021 37.1866 37.8058 37.1237 36.8628C37.0608 35.7522 38.4439 35.1235 39.324 35.5845C39.7641 35.815 40.0994 36.4018 39.8479 36.9047C39.5126 37.5962 38.6534 37.3448 38.2972 36.8418C38.2343 36.7371 38.0876 36.8209 38.1296 36.9466C38.3181 37.3657 38.5487 37.6172 39.0725 37.5753C39.4078 37.5543 39.7012 37.3448 39.8688 37.0724C40.3508 36.297 40.0574 35.375 39.1354 35.1026C38.1086 34.7882 37.0189 35.4588 36.7255 36.4856C36.3903 37.6172 37.3752 38.7278 38.3391 39.105C39.4916 39.566 40.7699 38.9583 41.8806 38.665C41.9853 38.644 42.132 38.6021 42.2997 38.5811C42.2997 39.1679 42.5721 39.7337 43.2007 39.9223C43.7665 40.069 44.9191 39.5451 44.4161 38.8116C44.0599 38.2878 43.4312 38.1411 42.7607 38.162C43.1588 36.8418 45.1286 37.0724 45.9878 37.7639C46.5955 38.2459 46.5536 39.0422 46.2183 39.6708C45.7992 40.4462 44.7933 40.8024 43.9761 40.7186C43.9132 40.7186 43.9132 40.8024 43.9551 40.8024C46.3231 41.7035 48.0833 38.1201 45.5896 37.0933ZM44.1228 39.105C44.1647 39.5451 43.5151 39.6289 43.2426 39.5032C42.8655 39.3355 42.6978 38.9374 42.6978 38.5392C43.3474 38.4973 44.0599 38.5602 44.1228 39.105Z" fill="#FFFCE9"/>
<path d="M47.9786 40.8234C48.0205 40.8024 48.0205 40.7186 47.9576 40.7395C47.1194 40.8443 46.1136 40.4881 45.7154 39.6918C45.3801 39.0422 45.3382 38.2668 45.9459 37.7848C46.8051 37.0933 48.7749 36.8628 49.173 38.183C48.5234 38.162 47.8738 38.3087 47.5176 38.8326C47.0146 39.566 48.1672 40.0899 48.733 39.9432C49.3616 39.7756 49.6341 39.1888 49.6341 38.6021C49.8017 38.6231 49.9693 38.665 50.0532 38.6859C51.1638 38.9793 52.4421 39.587 53.5946 39.126C54.5586 38.7278 55.5435 37.6382 55.2082 36.5066C54.9148 35.4798 53.8251 34.8301 52.7983 35.1235C51.8553 35.3959 51.5829 36.318 52.0649 37.0933C52.2325 37.3657 52.5259 37.5753 52.8612 37.5962C53.3851 37.6382 53.5946 37.3867 53.8042 36.9676C53.8461 36.8628 53.7203 36.779 53.6365 36.8628C53.2803 37.3448 52.4211 37.5962 52.0858 36.9257C51.8553 36.4227 52.1697 35.836 52.6097 35.6055C53.4898 35.1445 54.8729 35.7731 54.81 36.8838C54.7681 37.8268 54.0556 38.6231 53.1126 38.7907C52.3373 38.9164 51.5829 38.6859 50.8285 38.4764C50.4723 38.3716 50.0322 38.2668 49.5712 38.2039C49.5083 37.9315 49.3826 37.6801 49.215 37.4915C48.4815 36.6952 47.2871 36.7161 46.3441 37.1143C43.8923 38.1201 45.6316 41.7035 47.9786 40.8234ZM49.2359 38.5392C49.2359 38.9164 49.0892 39.3146 48.6911 39.5032C48.4187 39.6289 47.769 39.5451 47.8109 39.105C47.8948 38.5602 48.6073 38.4973 49.2359 38.5392Z" fill="#FFFCE9"/>
<path d="M54.9357 31.7078C54.4957 31.8126 54.0765 31.8545 53.6155 31.8545C52.903 31.8545 52.2534 31.7288 51.6667 31.4563C51.0799 31.1839 50.5561 30.8277 50.0741 30.4086C49.5921 29.9685 49.1311 29.4865 48.712 28.9207C48.2929 28.3759 47.8738 27.8101 47.4966 27.2443C47.0984 26.6995 46.7003 26.1546 46.3231 25.6308C45.9459 25.1069 45.5268 24.6668 45.1286 24.3106C44.8143 24.0382 44.4371 23.8705 43.9761 23.7867C43.5151 23.7238 43.1169 23.6819 42.7607 23.6819C42.614 23.6819 42.4673 23.6819 42.2997 23.6819C42.153 23.6819 42.0063 23.6819 41.8596 23.7029V28.5016C41.8596 28.5855 41.8806 28.7321 41.9015 28.9417C41.9225 29.1512 41.9644 29.3608 42.0272 29.5913C42.0692 29.8218 42.132 30.0314 42.1739 30.22C42.2158 30.4086 42.2787 30.5133 42.3206 30.5553C42.4044 30.5972 42.5302 30.6181 42.6769 30.6391C42.8235 30.66 42.9493 30.681 43.0331 30.681C43.2217 30.7019 43.4103 30.7229 43.6198 30.7648C43.8084 30.8067 43.997 30.8905 44.1437 31.0163C44.2485 31.1001 44.2695 31.1839 44.2276 31.2677C44.1856 31.3516 44.0809 31.3935 43.9342 31.3935C42.8864 31.3935 41.8386 31.3935 40.7909 31.3935C39.7431 31.3935 38.6953 31.3725 37.6476 31.3096C37.4799 31.2887 37.3752 31.2258 37.3752 31.1001C37.3752 30.9744 37.438 30.8905 37.6266 30.8486C38.0038 30.7858 38.2972 30.7019 38.5067 30.6181C38.7163 30.5343 38.863 30.4086 38.9678 30.2619C39.0516 30.1152 39.1145 29.9056 39.1354 29.6332C39.1564 29.3608 39.1564 29.0255 39.1564 28.6064V14.3358C39.1564 14.0425 39.1145 13.812 39.0516 13.6443C38.9887 13.4767 38.9049 13.3509 38.8001 13.2671C38.6953 13.1833 38.5906 13.1414 38.4648 13.1204C38.3391 13.0995 38.2343 13.0785 38.1086 13.0576C37.8781 13.0366 37.6685 13.0157 37.4799 12.9528C37.3123 12.9109 37.1866 12.7851 37.1447 12.6175C37.1027 12.5337 37.1027 12.4499 37.1447 12.4079C37.1866 12.3451 37.2913 12.3241 37.3961 12.3241H37.8571H39.5545C39.8479 12.3451 40.1203 12.3451 40.3718 12.3451C40.6232 12.3451 40.8957 12.3241 41.1681 12.3241C41.3148 12.3241 41.4824 12.3241 41.6291 12.3032C41.7758 12.3032 41.9225 12.2822 42.0901 12.2822H43.4522C44.1647 12.2822 44.8772 12.3241 45.5896 12.4289C46.2812 12.5337 46.9308 12.7223 47.5175 12.9947C48.1043 13.2881 48.6282 13.6862 49.0473 14.2101C49.4664 14.734 49.8017 15.4255 50.0112 16.2847C50.0531 16.3685 50.0741 16.4733 50.0741 16.62C50.0741 16.7667 50.095 16.8924 50.095 16.9972C50.095 17.521 50.0112 18.0659 49.8436 18.5898C49.6759 19.1137 49.4454 19.6166 49.173 20.1195C48.9006 20.6224 48.5863 21.0835 48.23 21.5235C47.8738 21.9636 47.5175 22.3617 47.1403 22.718C47.4128 23.0113 47.7061 23.3676 47.9995 23.7657C48.2929 24.1848 48.6072 24.583 48.9215 25.0021C49.4454 25.6936 49.9693 26.4061 50.5351 27.1395C51.1009 27.873 51.6876 28.5226 52.2953 29.1093C52.9031 29.6751 53.5317 30.1361 54.1604 30.4714C54.789 30.8067 55.4386 30.9325 56.0883 30.8277L56.2349 31.2677C55.7739 31.4563 55.3548 31.603 54.9357 31.7078ZM46.9727 16.5152C46.8051 15.9075 46.5536 15.3836 46.2393 14.9016C45.904 14.4197 45.5058 14.0425 45.0239 13.7491C44.5419 13.4557 43.9551 13.2881 43.3055 13.2881C42.8026 13.2881 42.3206 13.3719 41.8596 13.5186V22.0055C42.5511 22.1103 43.2636 22.1522 43.997 22.1522C44.2904 22.1522 44.6257 22.1312 45.0029 22.1103C45.3801 22.0684 45.6944 21.9636 45.9249 21.775C46.1554 21.5864 46.365 21.3559 46.5326 21.0835C46.7003 20.811 46.826 20.5386 46.9308 20.2243C47.0356 19.91 47.0984 19.5956 47.1403 19.2603C47.1822 18.9251 47.2032 18.6107 47.2032 18.2964C47.2242 17.7096 47.1403 17.1019 46.9727 16.5152Z" fill="#FFFCE9"/>
</svg>
